<svg xmlns="http://www.w3.org/2000/svg" width="455" height="548"><path fill="#2e384c" d="M335.7 21c8.6 7.6 15.2 16.9 16.2 28.6a133 133 0 0 1-.1 15.3A189 189 0 0 1 346 98l2.4.2 3.3.3 3.2.2c16.8 1.6 36 8.4 49.1 19.3l4 2v2l5 2v2l1.8.8c5.7 3.1 10.3 9 14.2 14.2v2h2q2.6 3.6 4.8 7.3l1.4 2.2A99 99 0 0 1 452 201l.1 3.7c.6 25-6 53-23.1 72.3h-2l-.3 2-.7 2-3 1-2 4c-1.6 1.6-1.6 1.6-3.4 3a28 28 0 0 0-5.4 5.4L411 296h-3l-1 3a89 89 0 0 1-27 14l-4 2v19l5 1c5.3 2 9.3 4.6 13 9l1 3 3 1q1.9 3.1 3.5 6.4l1.8 3.6c3.6 8 5.3 15.8 5.3 24.6v3A47 47 0 0 1 396 418l-3.2 2c-2.2 1.8-2.8 2.7-3.2 5.6q0 4.9.2 9.8c.7 13.8.7 13.8-2.8 19.6-1.9 2-1.9 2-3.9 3.3l-2 1.4A28 28 0 0 1 362 463a26 26 0 0 1-14.9-10.6A52 52 0 0 1 344 428l-3 1a36 36 0 0 1-22-4l-2-2c-2-.4-2-.4-4.3-.4h-2.5l-2.7-.2q-2.6 0-5.2-.2h-2.4c-1.9-.2-1.9-.2-3.9-1.2l-.1 1.7c-1.3 16.5-4.3 33-7 49.3l-1.6 11.3c-2.3 16.5-6.4 31.6-19.7 42.7l-6.6 4-3.2 2.1c-18.4 10.3-40.2 7-60 5l-11.8-1-3-.4q-11.3-1-22.7-1.8-13.9-1-27.5-2.8-10-1.3-20.2-2.1a835 835 0 0 1-56.7-6.7 54 54 0 0 1-37.7-22C6.5 484 7.9 467 10.9 448l1-6.2q1.3-7.7 2-15.3a692 692 0 0 1 5.6-40.8l.4-2.8 3.8-28.4a270 270 0 0 1 2.4-15.2q1.2-7.1 1.8-14.4.9-9.3 2.5-18.6 1.8-10 3-20.2 1.9-15.3 4-30.6 3-20 5.3-39.9 1.1-10 2.9-19.9.9-5.7 1.3-11.3 1-9.3 2.6-18.4 1.9-11 3-22.1 2.4-22.5 6-45 1.6-9 2.5-18.4c1.3-12.6 3.2-25.1 11-35.5l2-2.5c10.5-12.5 29.6-14.1 44.8-16.6l13-2.3c26.2-5 26.2-5 38.5-6.2q6-.6 12-1.9 10.1-1.8 20.4-2.7 8.4-1 16.9-2.2c13.8-2.1 27.7-3.1 41.6-4.3l7-.6c25.8-2.3 46.9-1.8 67.5 15.2M311 316q-1.4 4.4-1 9 2.3 3.7 5.3 7c1.7 2 1.7 2 2.7 6l17 1-.4-7.8-.2-2.5c-.2-3-.4-5.7-1.4-8.7l-9.9-2-2.8-.6-2.7-.5-2.5-.5c-2-.5-2-.5-4.1-.4"/><path fill="#bcedfc" d="M295.6 46.8 298 49l1.8 1.6c3.2 3.8 2.5 8.8 2.2 13.4l-1.4 8.2q-1.4 9-2.5 17.9L297 98q0 1.1-.3 2.3c-.4 2.9-1 5.1-3.3 7q-3 1.8-6.3 3.1c-7.8 3.8-14.3 8-21.1 13.6l-1.8 1.4c-19.9 15.5-32 42.3-36.2 66.6q-.4 7.6-.3 15.3v2.1c0 11 .8 21.1 4.3 31.6l.9 3a96 96 0 0 0 24.4 39.2l1.7 1.6 3.2 2.9c2.9 2.6 3.8 4 4 7.8q-.3 7.5-1.7 14.9l-.4 3-3.8 24.4-2.4 16.2q-1 7-2.4 14l-3 17.8a1427 1427 0 0 1-5.2 35c-1.2 7.7-2.6 15.6-8.3 21.2-7.3 4.6-14.3 4.5-22.7 4.3h-4a1149 1149 0 0 1-56.7-2.3l-4.6-.2a3347 3347 0 0 0-69.4-2.9l-18.8-.7c-17.3-.6-17.3-.6-22.8-6.2-7.2-9.7-3.6-22.4-2-33.6l.9-7.1q1.9-14 4-28 2.9-17.7 5-35.5 3.7-29.1 7.8-58.3l.4-3.2 1-6.2.3-3 .5-3 3.2-23.4.4-3.4 4.5-34.1.4-3q2.3-18 5.3-35.8 1.9-12 3.2-24.4a1045 1045 0 0 1 5.7-44c1-7.7 2.8-12.8 8.3-18.4 8.7-6.5 22.5-5.9 33-6.8a229 229 0 0 0 17.5-2.3q12-2 24-2.7 9-.8 18-2.2c10.6-1.8 21.2-2.7 31.8-3.6l2-.2 5.6-.5Q225 51 229 50l6.6-.7 3.8-.4 12.6-1.1 2-.2 14.7-1.5c21-2.3 21-2.3 26.9.7"/><path fill="#d2d5db" d="M404 126.7a102 102 0 0 1 39.8 66.9c2.7 31-5.2 59.5-25.4 83.6A100 100 0 0 1 365 309l-3.1.9A99 99 0 0 1 306 307l-3.6-1.1A105 105 0 0 1 244 254c-12-25-15.2-53-6.3-79.6 4.4-11 9.5-21.6 17.3-30.4l2-2.4a106.5 106.5 0 0 1 147-15"/><path fill="#2f3a4e" d="M281.5 16.7h4.1c9.9-.3 17 .7 25.3 6.2 5.3 5.2 6.2 10.5 6.4 17.8 0 12-1.7 23.4-3.7 35.2l-2.8 16.9-.4 2.2-1.4 6 9-2c9.7-38.7 9.7-38.7 5-77q4.5-2.2 9-4c9.3 7.6 18 16.8 19.6 29.2a110 110 0 0 1 .2 17.7A189 189 0 0 1 346 98l2.4.2 3.3.3 3.2.2c16.8 1.6 36 8.4 49.1 19.3l4 2v2l5 2v2l1.8.8c5.7 3.1 10.3 9 14.2 14.2v2h2q2.5 3.6 4.8 7.3l1.4 2.2A99 99 0 0 1 452 201l.1 3.7c.6 25-6 53-23.1 72.3h-2l-.3 2-.7 2-3 1-2 4c-1.6 1.6-1.6 1.6-3.4 3a28 28 0 0 0-5.3 5.4L411 296h-3l-1 3a89 89 0 0 1-27 14l-4 2v19l5 1c5.3 2 9.3 4.6 13 9l1 3 3 1a71 71 0 0 1 5.3 10c3.6 8 5.3 15.8 5.3 24.6v3A47 47 0 0 1 396 418l-3.2 2c-2.2 1.8-2.8 2.7-3.2 5.6q0 4.9.2 9.8c.7 13.8.7 13.8-2.8 19.6-1.9 2-1.9 2-3.9 3.3l-2 1.4A28 28 0 0 1 362 463a26 26 0 0 1-14.9-10.6A52 52 0 0 1 344 428l-3 1a36 36 0 0 1-22-4l-2-2c-2-.4-2-.4-4.4-.4l-2.5-.1-2.7-.1-2.7-.1-6.7-.3v-1h16l-2-6h-2l.2-3c0-4.6-1.6-8.6-3.2-13a71 71 0 0 1-3-19c-1.2 1-1.2 1-1.1 3v11.6l.1 7.4h-6l-2-4-3 1-.4 3.4a1746 1746 0 0 1-12.7 79.8l-.5 2.7-1 5.5q-1 7-3.4 13.6l-5-1-1-3c-2-.7-2-.7-4-1v-3h-3l-1-2-5-2q.5-5.2 2-10h2l-.1-3.5q0-5.2 1.5-10.3 1.4-5.2 2-10.7l1.3-7.7.4-2.3.8-4.4q1.1-7 2-14.2 1.6-12 3.5-23.8l.4-2.2q1.7-11.4 3.9-22.8 1.6-8.7 2.5-17.5 2.4-20.3 6.5-40.4c1.7-8 1.7-8 1.3-16.2-2.1-2-2.1-2-5-3l-5.3-3.7-2.7-1.9-2-1.4-1 8h-2v-12l-4-2a105 105 0 0 1-21-25l-1.2-2a102 102 0 0 1-14.1-54.4v-2.2A87 87 0 0 1 231 176l1-3.2c8.1-27.6 29.2-49.4 53.8-63.2q4.5-2.2 9.2-3.6l.4-3.3 4.8-33.5c1-5.8 2-11.4-.3-17-3-3.5-5.5-5.9-10.3-6.5-7.9-.2-15.8.8-23.6 1.7l-13.3 1.3q-21.3 2-42.3 4.6l-16.5 2q-9.6 1-19.2 2.2Q162.9 59 151 60q-11 1-22 2.9a251 251 0 0 1-20.2 2.4C100 66 92.3 66.8 86 74q-2.8 5-4.6 10.3C80 88 80 88 78 89l-1-9-3-1c-.8-9.8 2-19.8 8.2-27.6a45 45 0 0 1 24.7-10.9l20-3.8L147 33l2.5-.5q15.6-2.6 31.3-4.4 9-1 17.6-2.5 13.4-2.3 26.9-3.7l2.1-.3q13-1.6 26-2.3c2.6-.1 2.6-.1 4.6-1.3 7.7-1.3 15.7-1.2 23.5-1.3M257 141a107 107 0 0 0-24 79q1.3 8.2 4 16l1.1 3.6a105 105 0 0 0 26.5 42.2l1.9 2c3.6 3.6 7.1 6.5 11.5 9.2l3.3 2.1c8.9 5.6 17.7 9.8 27.7 12.9l2 .6a103 103 0 0 0 85-12.2 89 89 0 0 0 28-26.4l1.7-2.5a104 104 0 0 0 18.6-58.7v-3.3c-.4-28-11.8-51.7-31.3-71.5a113 113 0 0 0-79.6-30.4c-30.4.8-56.1 15.1-76.4 37.4m54 175q-1.4 4.4-1 9 2.3 3.7 5.3 7c1.7 2 1.7 2 2.7 6l17 1-.4-7.8-.2-2.5q-.1-4.3-1.4-8.7l-12.7-2.6-2.7-.5-2.5-.5c-2-.5-2-.5-4.1-.4"/><path fill="#36bbf5" d="M226 221c2.4 3.5 3 7 3.9 11a100 100 0 0 0 27.4 51.2l1.7 1.6 3.2 2.9c2.9 2.6 3.8 4 4 7.8q-.3 7.5-1.7 14.9l-.4 3-3.8 24.4-2.4 16.2q-1 7-2.4 14l-3 17.8a1427 1427 0 0 1-5.2 35c-1.2 7.7-2.6 15.6-8.3 21.2-7.3 4.6-14.3 4.5-22.7 4.3h-4a1149 1149 0 0 1-56.7-2.3l-4.6-.2a3347 3347 0 0 0-69.4-2.9l-18.8-.7c-17.3-.6-17.3-.6-22.8-6.2-7.3-10-3.5-23.4-2-34.8l1.7-12.8.3-2.4c.5-3.7 1-6.8 3-10 1.7 8.3.5 16.3-1.5 24.5q-1.4 7.7-2.5 15.5l2-2a109 109 0 0 1 6.9-6.3q6-5.4 11.1-11.7l1.4-1.7q2.8-3.3 5.3-6.7L67 384h2l.7-1.7c1.6-2.9 3.6-4.8 6-7a176 176 0 0 0 10.8-11.6q3.1-3.4 6.5-6.7l2-3h2l1-3 3.4-3c2.5-2 3.8-3.3 5.6-6h2l1-3h2v-3l1.9-.2c2.2-.6 2.2-.6 3-2.6 1.3-2.6 2.8-4.1 5-6.1l2-2.1 2.1-2q3.9-3.7 7.2-7.8l1.8-2.2h2l.8-1.8c1.3-2.3 2.6-3.8 4.6-5.6q3.1-2.9 5.7-6.4c1.9-2.2 1.9-2.2 4.2-3.5a47 47 0 0 0 13.3-13.3c4.1-5.6 9-10.2 14-15l5.6-5.5 2.5-2.4c2.4-2.4 2.4-2.4 4.2-5.4q4-5.6 9-10.2l2-2 14.5-14.5 1.9-2c4.5-4.4 4.5-4.4 6.7-4.4M44 373l2 2-2 1z"/><path fill="#242937" d="M328 15a22 22 0 0 1 2 4l-6 4 .6 1.7c1.9 5.2 3 9.9 2.9 15.4v2.4c-.3 13.3-3.2 26.5-5.5 39.5l-3 17-6 2q-.1-8.9 1.3-17.8l.4-2.8 2.2-13.3c4-22 4-22-.6-43.3a22 22 0 0 0-15-9.3c-10-1.4-20.2-.5-30 .3l-3.6.3-11.7.9-2.1.2a572 572 0 0 0-47.2 5q-8 1.3-16 2.2-16 2-32 4.8-9 1.6-18.1 2.8a375 375 0 0 0-27.2 4.6c-15 3-27.5 5.5-37 18-3.8 6.8-5 14-6 21.7q0 1.5-.3 2.9l-3 24-2.6 17.9q-1.3 8.2-2.4 16.4l-1 7.6-.6 4-1.6 11.7-.5 3.8-3.6 27.1-3.2 24.6-.4 2.4-4.2 29.7q-1.2 8-2.2 16.1l-3.6 26.6a650 650 0 0 0-3.1 24.4q-1.2 11-3 21.7-3.6 23.6-6.4 47.3C25 412.2 25 412.2 23 424a434 434 0 0 0-3.7 26.3c-2.8 18.5-2.8 18.5 2.7 35.7 10 11.4 30.2 10.2 44.1 11.6l12.8 1.2 3 .3 2.7.3 2.5.2c1.9.4 1.9.4 3.9 2.4 3.2.3 3.2.3 7 .2h2l22-.2v2l4 .2q15 .6 29.8 1.6 1.5 0 3 .2l12 .8q17 1.2 34 1.4h3c12.6-.1 23.4-.7 33.6-9.2 9-9.3 11.5-21.4 13.5-33.9l.7-4.3q3.7-22.3 7-44.6 2-13.7 4.3-27.4l4-25.2 7.5-47.5.6-3.6.4-3c.6-2.5.6-2.5 2.6-5.5l4 2c.2 6.4-.4 12.1-1.7 18.4a560 560 0 0 0-6.8 43.3q-.7 7.5-2.3 14.8-2.4 12-4.1 24.3l-.5 3.3-4.1 27.8-.3 2.2q-2 14-5 27.8A143 143 0 0 0 259 482h-2l-1 10 5 2v2h3v3l1.9.3c2.1.7 2.1.7 4.1 3.7 2 .7 2 .7 4 1q7.4-40.8 13.8-81.7l.3-2q1.8-10.6 2.9-21.3l4-1 2 3c3 .7 3 .7 6 1l-.5-2q-.8-5.5-.7-11.2l-.1-2.2c0-2 0-2 .3-5.6l3-2 .1 2.4c.4 7 1.4 13.4 3.3 20.1.6 2.5.6 2.5.6 5.5l2 1-1 7h2c2 3 2 3 2 6h-18l-.3 4.2c-1.5 15.7-4.2 31.2-6.7 46.8l-1.7 11.3c-2.3 16.5-6.4 31.6-19.7 42.7l-6.6 4-3.2 2.1c-18.4 10.3-40.2 7-60 5l-11.8-1-3-.4q-11.3-1-22.7-1.8-13.9-1-27.5-2.8-10-1.3-20.2-2.1a835 835 0 0 1-56.7-6.7 54 54 0 0 1-37.7-22C6.5 484 7.9 467 10.9 448l1-6.2q1.3-7.7 2-15.3a692 692 0 0 1 5.6-40.8l.4-2.8 3.8-28.4a270 270 0 0 1 2.4-15.2q1.2-7.1 1.8-14.4.9-9.3 2.5-18.6 1.8-10 3-20.2 1.9-15.3 4-30.6 3-20 5.3-39.9 1.1-10 2.9-19.9.9-5.7 1.3-11.3 1-9.3 2.6-18.4 1.9-11 3-22.1 2.4-22.5 6-45 1.6-9 2.5-18.4c1.3-12.6 3.2-25.1 11-35.5l2-2.5c10.5-12.5 29.6-14.1 44.8-16.6l13-2.3c26.2-5 26.2-5 38.5-6.2q6-.6 12-1.9 10.1-1.8 20.4-2.7 8.4-1 16.9-2.2c13.8-2.1 27.7-3.1 41.6-4.3l7-.6c44-4 44-4 59.8 9.3M26 496v2c12.9 3.7 25.7 5.5 39 7l3.3.3q27.3 3.1 54.6 5.5l3.6.3a742 742 0 0 0 76.3 3l17.2-.1v-1h-2.3a1626 1626 0 0 1-107.7-5.7C95 506 95 506 89 503h-6.4c-8.7.2-17.2-.9-25.9-2l-12.8-1.7-2.3-.3q-7.9-1.1-15.6-3"/><path fill="#152c47" d="M287 306q4.8 1.9 9.4 4 5.6 2.5 11.6 4l1-2 4 1 1 2c2.4.7 2.4.7 5.3 1.1l3 .5c2.9.5 2.9.5 6.7.4l1-4h2l8.6-.4 3-.2q7.4-.1 14.4-1.4l-1 3h8a13 13 0 0 1-8 2.6l-3 .2-3 .3-6 .4-2.7.2c-2.5.2-2.5.2-5.3 1.3v9l3-4 .7 5.8.4 3.3c-.1 2.9-.1 2.9-1.4 4.8-1.7 1.1-1.7 1.1-5.3 1.5l-3.4.6c-1.2 2-1.2 2-2 4l1.4 1c5.2 4.2 8.1 7.8 9 14.6.2 6.4-.4 10.4-4.4 15.4-2.9 2.6-5.4 4-9.3 4q-3.4-.3-6.7-1l-3-.6-2-.4v3l3.8 1c2.2 1.2 2.2 1.2 4.2 3q1.4 4.4 2 9a36 36 0 0 0 12 23l2.8 2.3 2.2 1.7v-2l4-2-1.5-1.1A40 40 0 0 1 329 392v-9l3.7-1.4c4.2-2.2 6.4-4.5 8.5-8.7q1.4-5.5 1.3-11.1v-2.1c0-4.5-1.1-7-3.5-10.7l1-3q6.8-2.9 14.3-3.6c3.5-.4 6.3-1.1 9.7-2.4l2.1-.8 5.9-2.2c-7-1-13.1-.8-20 0l-3 .2-7 .8-1-19q13.5-2 27-3l2 13 1-2 3 2v-15l2 1v19l5 1c5.3 2 9.3 4.6 13 9l1 3 3 1q1.9 3.1 3.5 6.4l1.8 3.6c3.6 8 5.3 15.8 5.3 24.6v3A47 47 0 0 1 396 418l-3.2 2c-2.2 1.8-2.8 2.7-3.2 5.6q0 4.9.2 9.8c.7 13.8.7 13.8-2.8 19.6-1.9 2-1.9 2-3.9 3.3l-2 1.4A28 28 0 0 1 362 463a26 26 0 0 1-14.9-10.6A52 52 0 0 1 344 428l-3 1a36 36 0 0 1-22-4l-2-2c-2-.4-2-.4-4.4-.4l-2.5-.1-2.7-.1-2.7-.1-6.7-.3v-1h16l-2-6h-2l.2-3c0-4.6-1.6-8.6-3.2-13a71 71 0 0 1-3-19c-1.2 1-1.2 1-1.1 3v11.6l.1 7.4h-6l-2-4-3 1-.4 3.4a1746 1746 0 0 1-12.7 79.8l-.5 2.7-1 5.5q-1 7-3.4 13.6l-5-1-1-3c-2-.7-2-.7-4-1v-3h-3l-1-2-5-2q.6-5.1 2-10h2l-.1-3.5q0-5.2 1.5-10.3 1.4-5.2 2-10.7l1.3-7.7.4-2.3.8-4.4q1.1-7 2-14.2 1.6-12 3.5-23.8l.4-2.2q1.7-11.4 3.9-22.8 1.6-8.7 2.5-17.5 3.4-28.6 9.8-56.6m24 10q-1.4 4.4-1 9 2.3 3.7 5.3 7c1.7 2 1.7 2 2.7 6l17 1-.4-7.8-.2-2.5c-.2-3-.4-5.7-1.4-8.7l-9.9-2-2.8-.6-2.7-.5-2.5-.5c-2-.5-2-.5-4.1-.4"/><path fill="#72d2f9" d="M226 221c2.4 3.5 3 7 3.9 11a100 100 0 0 0 27.4 51.2l1.7 1.6 3.2 2.9c3 2.7 3.8 4 4 8q-.2 6-1.2 12.2l-.3 2.1-2.4 15.7-.3 2c-.6 3.4-1.2 6.3-3 9.3-.3-8.1.4-16.2 3-24l-2-1h2c.3-8.7.3-8.7-2-17h-4l1-8-5-1-1 2c-1.6-1.6-1.6-1.6-3-4 .3-3.2.3-3.2 1-6-3.7 0-4.1.7-6.8 3.2l-2.1 2-2.2 2.2-2.3 2c-3.8 3.5-3.8 3.5-6.6 7.6l-2.1 1.1c-3.4 2.2-5.4 4.7-8 7.8q-3.6 4-8 7.4-3.5 3.2-6.9 6.7l-21 20.9-1.7 1.7a55 55 0 0 0-6 6.7c-1.3 1.7-1.3 1.7-4.5 2.4l-2.8.3v2h-3l-.8 2c-1.2 2-1.2 2-4.2 3-.7 2-.7 2-1 4h-2v2l-3 2.6a58 58 0 0 0-7.6 7.5 50 50 0 0 1-6.8 6.8c-2.6 1.8-2.6 1.8-3.6 4.1l-2.4 1.3c-2.7 1.5-2.7 1.5-4 4-1.9 3.1-4 4.8-6.8 7a59 59 0 0 0-6.4 7 95 95 0 0 1-6.4 6.7l-1.6 1.6-4.4 4.4h-2l-.8 2c-1.2 2-1.2 2-4.2 3-1.2 2-1.2 2-2 4h-2l-.8 1.8a14 14 0 0 1-5.1 5.2c-3.1 2.1-3.1 2.1-5.3 5-1.8 2-1.8 2-5 2.5H71l-11 .1c-7 0-12.8 0-18.6-4.2-3.8-3.8-5.6-8-5.6-13.5 0-7.6 1.2-15.1 2.2-22.7l1.7-12.8.3-2.4c.5-3.7 1-6.8 3-10 1.7 8.3.5 16.3-1.5 24.5q-1.4 7.7-2.5 15.5l2-2a109 109 0 0 1 6.9-6.3q6-5.4 11.1-11.7l1.4-1.7q2.8-3.3 5.3-6.7L67 384h2l.7-1.7c1.6-2.9 3.6-4.8 6-7a176 176 0 0 0 10.8-11.6q3.1-3.4 6.5-6.7l2-3h2l1-3 3.4-3c2.5-2 3.8-3.3 5.6-6h2l1-3h2v-3l1.9-.2c2.2-.6 2.2-.6 3-2.6 1.3-2.6 2.8-4.1 5-6.1l2-2.1 2.1-2q3.9-3.7 7.2-7.8l1.8-2.2h2l.8-1.8c1.3-2.3 2.6-3.8 4.6-5.6q3.1-2.9 5.7-6.4c1.9-2.2 1.9-2.2 4.2-3.5a47 47 0 0 0 13.3-13.3c4.1-5.6 9-10.2 14-15l5.6-5.5 2.5-2.4c2.4-2.4 2.4-2.4 4.2-5.4q4-5.6 9-10.2l2-2 14.5-14.5 1.9-2c4.5-4.4 4.5-4.4 6.7-4.4M44 373l2 2-2 1z"/><path fill="#d7ecf7" d="M340 129a76 76 0 0 1 52.2 20.3 85 85 0 0 1 23.7 37.2c5.9 19 2.4 40.5-6.2 58q-4.8 9-11.7 16.5l-2.1 2.4a74 74 0 0 1-20.3 15c-9 5-20.3 8.2-30.6 8.6l-3.6.2c-8.9.2-16.8-.7-25.4-3.2l.6-3.2q2.4-14 4.3-28.3l2.1-12.9q1.7-10 2.8-20.2a264 264 0 0 1 3-19q2.3-12 3.8-24.2l1.9-12.9q.5-3.7 1.5-7.3c-12.2.2-25 1.2-35 9h-2c-1.4-4.2-.5-6.5 1.2-10.5 1.4-4.4 1.8-9 2.4-13.5.4-3 .4-3 1.4-5h2l1 7 2-1.4q5-2.6 10.6-3.8l2-.5q9.1-2 18.4-1.3z"/><path fill="#9ce0fa" d="m231 159 1 2 3 1a310 310 0 0 1-5 21.3c-2.4 9-2.7 18-2.7 27.2L227 227h-1v-6a295 295 0 0 0-24.2 23l-3.2 3.2-1.5 1.5A65 65 0 0 0 189 259q-2.4 2.7-5 5.1l-1.4 1.4-6 5.8c-5.2 5.1-10.2 10.1-14.4 16a40 40 0 0 1-11.8 11.2c-4.8 3-8 7.8-11.5 12.2q-3.3 3.9-6.9 7.3l-5 5-10 10-1.7 1.8C114 336 114 336 112 336v3l-5 4-5.4 6.1q-2 2.6-4.6 4.9h-2l-.7 1.7c-1.7 3-3.9 5-6.3 7.3l-2.2 2.8L84 368h-2l-.7 1.7c-1.6 3-3.7 4.9-6.1 7.2Q69.7 382.2 65 388q-6.2 7.2-12.6 14.2l-1.4 1.5c-8.3 9-8.3 9-12 10.3-.2-5.8.3-10.4 2-16l.8-7.4q.2-3 .7-5.8.6-5.4.4-11c-.2-10 1.4-19.8 3-29.8l1.5-10.8.4-2.8 2.7-20.1a2056 2056 0 0 1 7.4-54.4L60 240h1a40 40 0 0 1-1 21v3.1c0 2.9 0 2.9-1 5.3-1.1 2.9-1 5.3-1 8.4 0 3.3-.8 6.3-1.5 9.5q-1 5.6-1.3 11c-.2 2.7-.2 2.7-.7 5.4q-1 7.7-1.7 15.4-.7 6-1.8 11.9-2 9-3 18h2v-3h2l.7-1.6c2.6-4.8 6-8.2 10.3-11.4l1-3h3v-2h2l1-3h2l.7-2.2c1.6-3.3 3.4-4.6 6.3-6.8l3-4 7.5-7.4q2.8-2.9 5.2-6L97 296h2l1-3h2v-2h2v-3h3l.3-2 .7-2 3-1 1-3h3l.8-1.7c1.8-3.4 4.5-5.7 7.3-8.3 1.9-2 2.7-3.6 3.9-6l3-2.6c3-2 3-2 4-4.4h2v-2l3.4-3c2.4-2 3.8-3.3 5.6-6h2l.8-1.8c1.4-2.5 2.8-3.6 5.1-5.3a121 121 0 0 0 19.3-18.7q6.4-7 13.3-13.7a182 182 0 0 0 10.9-11.7q4-4.5 8.4-8.6 3-3 5.9-6.4c2.8-3.4 6-6 9.3-8.8l5.4-6.1q2.7-3 5.6-5.9M44 373l1 3v-3z"/><path fill="#3cc0f6" d="M404 126.7a102 102 0 0 1 39.8 66.9c2.7 31-5.2 59.5-25.4 83.6A100 100 0 0 1 365 309l-3.1.9A99 99 0 0 1 306 307l-3.6-1.1A105 105 0 0 1 244 254c-12-25-15.2-53-6.3-79.6 4.4-11 9.5-21.6 17.3-30.4l2-2.4a106.5 106.5 0 0 1 147-15m-74.8-7.7c-18.7.7-36.2 10.2-50.2 22l-1.7 1.4a43 43 0 0 0-8.3 8.6l-1.6 2a86 86 0 0 0-14.4 29l-.9 2.6A85 85 0 0 0 259 246q3.7 6.2 8 12l2 2.8c13 17.1 32.8 28.2 53.6 32.8a95 95 0 0 0 73-19c4-3 4-3 7.4-6.6v-2l3-1c17.3-19 21.9-43 21.2-67.9-1.2-20.7-13.3-40.2-28.1-54.3-20.3-17.7-43.3-24-69.9-23.8"/><path fill="#2e384a" d="M287 306q4.8 1.9 9.4 4 5.6 2.5 11.6 4l1-2 4 1 1 2c2.4.7 2.4.7 5.3 1.1l3 .5c2.9.5 2.9.5 6.7.4l1-4h2l8.6-.4 3-.2q7.4-.1 14.4-1.4l-1 3h8a13 13 0 0 1-8 2.6l-3 .2-3 .3-6 .4-2.7.2c-2.5.2-2.5.2-5.3 1.3v9l3-4 .7 5.8.4 3.3c-.1 2.9-.1 2.9-1.4 4.8-1.7 1.1-1.7 1.1-5.3 1.5l-3.4.6c-1.2 2-1.2 2-2 4l1.4 1c5.2 4.2 8.1 7.8 9 14.6.2 6.4-.4 10.4-4.4 15.4-2.9 2.6-5.4 4-9.3 4q-3.4-.3-6.7-1l-3-.6-2-.4v3l3.8 1c2.2 1.2 2.2 1.2 4.2 3q1.4 4.4 2 9a36 36 0 0 0 12 23l2.8 2.3 2.2 1.7v-2l6-1c.6 2.3.6 2.3 1 5l-2 3c-.5 3.2-.5 3.2-.6 6.7l-.3 3.6-.1 2.7h-1v-10l-3 1a36 36 0 0 1-22-4l-2-2c-2-.4-2-.4-4.4-.4l-2.5-.1-2.7-.1-2.7-.1-6.7-.3v-1h16l-2-6h-2l.2-3c0-4.6-1.6-8.6-3.2-13a71 71 0 0 1-3-19c-1.2 1-1.2 1-1.1 3v11.6l.1 7.4h-6l-2-4-3 1-.4 3.4a1746 1746 0 0 1-12.7 79.8l-.5 2.7-1 5.5q-1 7-3.4 13.6l-5-1-1-3c-2-.7-2-.7-4-1v-3h-3l-1-2-5-2q.6-5.1 2-10h2l-.1-3.5q0-5.2 1.5-10.3 1.4-5.2 2-10.7l1.3-7.7.4-2.3.8-4.4q1.1-7 2-14.2 1.6-12 3.5-23.8l.4-2.2q1.7-11.4 3.9-22.8 1.6-8.7 2.5-17.5 3.4-28.6 9.8-56.6m24 10q-1.4 4.4-1 9 2.3 3.7 5.3 7c1.7 2 1.7 2 2.7 6l17 1-.4-7.8-.2-2.5c-.2-3-.4-5.7-1.4-8.7l-9.9-2-2.8-.6-2.7-.5-2.5-.5c-2-.5-2-.5-4.1-.4"/><path fill="#222735" d="M332.3 18.4c8.7 5 15.7 15 18.7 24.6 1.1 6.3 1.1 12.7.9 19l-.1 2.9A189 189 0 0 1 346 98l2.4.2 3.3.3 3.2.2c16.8 1.6 36 8.4 49.1 19.3l4 2v2l5 2v2l1.8.8c5.7 3.1 10.3 9 14.2 14.2v2h2q2.6 3.6 4.8 7.3l1.4 2.2A99 99 0 0 1 452 201l.1 3.7c.6 25-6 53-23.1 72.3h-2l-.3 2-.7 2-3 1-2 4c-1.6 1.6-1.6 1.6-3.4 3a28 28 0 0 0-5.4 5.4L411 296h-3l-1 3a89 89 0 0 1-27 14l-1 1h-5v15h-3l-2 4q-1.2-8.4-1-17l-3.1.7A91 91 0 0 1 341 319l.5 2.6q.7 5 .6 10.3v3.5l-.1 2.6 1.6-.4q8.5-1.9 17.3-2.4l2.2-.1c3.8-.2 6.7-.3 9.9 1.9-2.5 3.1-4.7 3.6-8.6 4.1-3.5.3-3.5.3-6.4 1.9l-8 1.5c-5.1.8-5.1.8-10 2.5l3 7c.8 9 1 16.3-4.2 24-2 2.3-4 3.6-6.8 5h-3c1.8 13.9 5.8 24.2 17 33-3 2-3 2-5 2v2c-7.6-3.1-12.7-11-16-18.2a60 60 0 0 1-3-17.8l-2.4-.4c-2.9-.7-4.4-1.7-6.6-3.6l1-4 2 .4c7.6 1.8 7.6 1.8 15 .2l2-1.6h2l1-2.4c1-2.6 1-2.6 2-4.6.6-6.7.4-12.2-3-18-2.5-2.3-2.5-2.3-5-4l-2-2 2-2-1-2c3-1 3.9-1 7 0v-10h1l1 6h2l-1-10-2 3c-1-1-1-1-1.1-3v-5.1l.1-1.9c3.1-1.8 5.6-2.3 9.2-2.6l3-.3 3-.2 3.2-.3 7.6-.6-5-1v-2l-2-2 1.8-.3a109 109 0 0 0 39.2-14.4c10.7-6.3 20-15 27-25.3l1.7-2.5a104 104 0 0 0 18.6-58.7v-3.3a101 101 0 0 0-48.5-84.7 107 107 0 0 0-52-16c-9.6-.3-18.7.1-28 2.2-5 1-8.8.8-13.8 0v-3c3.5-2 6.9-2.8 10.8-3.6l3.5-.8 2.7-.6c9.7-38.7 9.7-38.7 5-77l1.8-.9c5.8-3 5.8-3 7.4-2.7"/><path fill="#1f314e" d="M334.8 118.8c23.4-.7 47 8.1 64.1 24a86 86 0 0 1 28.6 60.8A90 90 0 0 1 409 261l-2.2 3-1.8 2h-2l-.7 1.7c-7.7 13.3-27.9 20.5-41.8 24.7A93 93 0 0 1 293 282a117 117 0 0 1-12-9l-2.1-1.6A83 83 0 0 1 252 227l-.6-2.5A84 84 0 0 1 253 182l.9-3.3q2-6 4.8-11.6l1.1-2.2q3.8-7.5 9.2-13.9l1.9-2.6a90 90 0 0 1 55.2-29.2zM340 129v7l-2-.1c-6.5-.3-12.2.4-18.4 2q-1 0-2 .4c-4 1-7.2 2.4-10.6 4.7l-1-7c-11.6 1.4-22.9 12.5-30 21q-8.8 11.5-14 25l-1 2.5a76 76 0 0 0 2.3 49.2A68 68 0 0 0 287 267v-6h2v2c7 6 17.7 14 27 14v7c21 6 42.4 3.2 61.6-6.8A78 78 0 0 0 415 230l1-2.8c5.4-17.6 2.5-37-5.1-53.3a111 111 0 0 0-15.6-22A83 83 0 0 0 365 133l-2.2-1c-7.7-3-14.7-3.1-22.8-3"/><path fill="#48c8f9" d="M368 340.6c6.4.1 10.8 1.9 16 5.4l2.7 1.7a46 46 0 0 1 13.7 34c-.2 12.4-.2 12.4-3.4 17.3-3.3 2.3-5 3-9 3l-1 3a33 33 0 0 1-26 4.5 31 31 0 0 1-18.4-16.1A26 26 0 0 1 340 379l1-2c1.5-4.4 1.3-8.5 1.3-13v-2.7c0-5-.3-8-3.3-12.3l1-3a58 58 0 0 1 18-4c2.3-2.3 7-1.4 10-1.4"/><path fill="#171b27" d="M304 379h1l.1 2.4c.4 7 1.4 13.4 3.3 20.1.6 2.5.6 2.5.6 5.5l2 1-1 7h2c2 3 2 3 2 6h-18l-.3 4.2c-1.5 15.7-4.2 31.2-6.7 46.8l-1.7 11.3c-2.3 16.5-6.4 31.6-19.7 42.7l-6.6 4-3.2 2.1c-18.4 10.3-40.2 7-60 5l-11.8-1-3-.4q-11.3-1-22.7-1.8-13.9-1-27.5-2.8-10-1.3-20.2-2.1a835 835 0 0 1-56.7-6.7A50 50 0 0 1 29 512c-.6-2.3-.6-2.3-.7-4.7L28 505 28 503l3-1 2 2.3c10 9.7 26.4 9.8 39.6 11q6.5.5 12.9 1.6c8.2 1.5 16.5 2.2 24.9 3.1l5.1.5a2006 2006 0 0 0 56 5.3 594 594 0 0 0 52.4 2.7c14.6.4 27.5-2 39.1-11.5h2l.8-1.7c1.2-2.3 1.2-2.3 2.8-4.4 6.3-8.6 7.7-17.6 9.4-27.9l.4-2.3 1.8-11.7 2.7-16.2L288 421a388 388 0 0 0 3-22l4-1 2 3c3 .7 3 .7 6 1l-.5-2q-.8-5.5-.7-11.2v-2.2q0-2.8.2-5.6z"/><path fill="#bfc4cc" d="M312 18a28 28 0 0 1 8.5 20.8v5.3c-.3 10.7-2.2 21.2-4 31.7L314.3 91l-.4 2.8-.9 6.1-4 1q1.3-13.3 3.6-26.4c5.5-25.2 5.5-25.2-.2-49.3a27 27 0 0 0-20.1-7.4h-12.5c-12.2-.7-12.2-.7-23.8 2.1l-6.1.6-4 .4-2 .1Q213 23.6 182.6 29q-9.5 1.6-18.8 2.6-11.1 1.3-22 3.7-6 1.3-12.3 2.2C103 40.3 103 40.3 81.2 54c-5.4 8.7-7 19-8.3 29l-.5 3.7L69 115q-1 9-2.5 18l-2 12.9-2.3 16.3q-2 12-2.9 24.3-.8 7.5-2 15.2-2 12.5-3.3 25l-.4 3.1q0 1.5-.3 2.8C53 235 53 235 52 238l-.8 7.6Q49.9 257 48 268.5q-2.2 13.5-3.7 27-1.2 12-3.3 23.7-1.8 11.1-3 22.3-.7 6.7-2 13.2c-2.2 10.4-3 21-4.3 31.5a624 624 0 0 1-5.4 39.1 402 402 0 0 0-3.4 26.3l-.4 3.2-.3 2.7q-.4 3.3-1.3 6.5c-1 7.8.7 13.4 5 20 4.6 5.4 9.3 8 16 10v1c-8-.4-14-2-19.8-7.7-9.5-14-4.5-32.2-2.4-48l.8-6q1.8-13.5 4-26.8a783 783 0 0 0 3.9-29q2.9-23.6 6.4-47 3-20.2 5.4-40.4 1.3-10.8 3.3-21.6 1-7 1.7-14a1224 1224 0 0 1 8.3-59.1q.9-5.4 1.3-10.7 1.3-12.8 3-25.6l.5-3.6a3009 3009 0 0 1 7.3-51.6L67.6 90l.4-2.6L70.5 68q2.6-14.8 14-24.3c10-6.8 23.3-8.2 34.9-10.4l2.4-.4q15.6-3.1 31.4-5 7.8-1 15.7-2.4a487 487 0 0 1 39.6-5.4l2.5-.3 14.5-2a260 260 0 0 1 17.6-1.9l3-.2 9.9-.8 3.6-.3 11-.8 3.4-.3c27.7-2 27.7-2 38 4.4"/><path fill="#83e4fb" d="M404 126.7a102 102 0 0 1 39.8 66.9c1.6 19.1.5 36.9-7.8 54.4-1-3.3-1-4 0-7.2l.6-2.5.8-2.6c4.7-17 7-37.6-1.5-53.9-.9-1.8-.9-1.8-.9-5.8h-2c-1.3-3-2-4.8-2-8l-4-1v-3l-2 1-.2-1.8c-.9-5.6-.9-5.6-4.8-9.5l-3-1.7c-1.4-2.2-1.4-2.2-2-4l-3 8-1.7-2.2c-4.7-5.9-9.4-11.1-15.3-15.8l-2.2-1.8a81 81 0 0 0-55-17.6h-15.4c-5.2 0-8.7 1.1-13.4 3.4l-7.6 3c-2.5 1-2.5 1-4.8 2.5-3.6 2-7.4 3.2-11.3 4.5-2.5.8-2.5.8-3.3 3h-3l-1-2-3-1-1 5h-2v-2l-3.7 1.7-2 1c-15.7 9.4-23.6 32.4-27.7 49L235 203h-1a85 85 0 0 1 21-59l2-2.4a106.5 106.5 0 0 1 147-15"/><path fill="#3ac4f9" d="m293 130-2 1.1c-5 3-9 5.6-13 9.9q-1.6 1.4-3.2 2.7c-2.8 2-2.8 2-3.8 4.3h-2v2h-2l-.5 3.1c-1 4.4-3.2 8-5.5 11.8a37 37 0 0 0-5.6 14q-1 4.6-2.7 9c-5.6 16.9-1.7 39 5.6 54.8q4.3 8 9.7 15.3l1.8 2.6a90 90 0 0 0 52.8 32q7.5.8 15 .6h3.3c9.6 0 18-1 27.1-4.2h5c-3 2.5-5.5 3.7-9.3 4.6l-2.8.8c-23 5-48.8 2.3-69-10.3q-2.1-1.4-4.1-3.2c-2.5-1.3-4.1-.6-6.8.1-3 0-3 0-6-2-.2-3.6-.2-3.6 0-7l-2-1v-2h-5v2l-3 1c-14.3-8.4-23.4-28.5-27.5-44q-1-4.5-1.5-9l-2 2c-1-1-1-1-1.1-3.1v-12.1l.1-7.8h2l.4-1.9c4.2-19.1 9.8-38.5 23.6-53.1l4-2 1-2c1.3-2.5 2.4-3 5-4h3v2h2l1-5 4 1v2h3l1-3c6.3-3.2 6.3-3.2 10-2"/><path fill="#597287" d="M306 163h2v3h-3zm-2 3 4 2-.4 3.4q-1.7 14.8-2.6 29.6h3l.4-3.2c.5-3.3 1.2-5.8 2.6-8.8 2 1 2 1 3 4l1 3.8 1.1 3.8 1.9 7.4h2l.4-2.9.5-3.8.5-3.7c.5-3.2 1.3-5.7 2.6-8.6h6q-.4 14.2-2.8 28.2-1.5 8-2.2 16-1 10-3.3 19.7-1.4 6.5-1.7 13.1c-6-.5-10.3-2.3-15.5-5.2l-2.2-1.1c-10-5.4-10-5.4-13.3-9.7-.4-3.4-.4-3.4.3-7.1l.4-2 2.3-12 1.6-7.7a100 100 0 0 0 2.1-16.3q.6-5 1.7-10l1.6-9.3.5-3.3 1.5-10 .4-3 .6-2.3z"/><path fill="#101423" d="m281 304 5 2c.2 6.4-.4 12.1-1.7 18.4a560 560 0 0 0-6.8 43.3q-.7 7.5-2.3 14.8-2.4 12-4.1 24.3l-.5 3.3-4.1 27.8-.3 2.2q-2 14-5 27.8A143 143 0 0 0 259 482h-2l-.1 2.4A43 43 0 0 1 241 507a45 45 0 0 1-24.5 5.6H213l-19.2-.2q-30.9-.2-61.8-2.4l-2.4-.2-16.6-1.3-2.2-.2-6-.5-3.5-.3q-5.2-.8-10.3-2.5v-3h31v2l4 .2q15 .6 29.8 1.6 1.5 0 3 .2l12 .8q17 1.2 34 1.4h3c12.6-.1 23.4-.7 33.6-9.2 9-9.3 11.5-21.4 13.5-33.9l.7-4.3q3.7-22.3 7-44.6 2-13.7 4.3-27.4l4-25.2 2.3-14.4 5.3-33.1.6-3.6.4-3c.5-2.5.5-2.5 1.5-5.5"/><path fill="#0d2849" d="M397 406h3l1 3c-3.7 3-3.7 3-6 3zm-2.6 5.8 1.6 1.2v2h-2l-.3 2.3c-.7 2.7-.7 2.7-2.2 4-2.1 2.4-1.8 4-1.7 7.2v3.3l.3 6.8c.2 6.3.2 11-3.1 16.4-1.9 2-1.9 2-3.9 3.3l-2 1.4A28 28 0 0 1 362 463a25 25 0 0 1-16-13c-1.5-4.8-1.2-9.6-1.2-14.6v-8.2c.2-2.2.2-2.2 2.2-5.2.2-2.6.2-2.6 0-5l1.7.7c9.3 3.1 20 4 29.3.3 4.6-2.3 4.6-2.3 9-4.8 4.5-2.4 4.5-2.4 7.4-1.4"/><path fill="#374052" d="M270 296a25 25 0 0 1 11 7l-.2 4-.4 2.4-.4 2.6-.4 2.5-1.2 8.3-.5 3.3a11516 11516 0 0 1-19 117.9l-3.9 25.6c-2.2 13.8-6.6 25.3-18 34l-5 2.4-3-1 2-1c9.6-5.2 13.9-11.9 17-22.2q5.1-19.6 6-39.8l-2 2h-3c.2-19.2 3.2-38 6-57l.6-3.8.5-3.5.5-3 1.4-6.6c1.3-4.7 1.8-9.5 2.4-14.3l1.6-8.6a222 222 0 0 0 2.5-16 561 561 0 0 1 4.6-30z"/><path fill="#1675c3" d="M235 216c1.8 2.8 2.3 4 3 7a82 82 0 0 0 27 48v2l1.7.7c2.7 1.5 4.7 3.3 7 5.4 22 18.1 50.2 25.5 78.3 22.9 13-1.8 24.4-6 36-12l3.5-1.4q5.5-2.6 10.3-6.2l1.8-1.3q11-8.2 20.4-18.1l3-3 3 1c-14 23.2-35 40.5-61.6 47.2l-3.4.8-3.1.9A99 99 0 0 1 306 307l-3.6-1.1A105 105 0 0 1 244 254c-5.7-11.8-11.8-24.7-9-38"/><path fill="#afe4f6" d="M287 149c.3 10.1-.6 19.5-2.4 29.5l-1.3 7.8-.7 4-1.5 10.3q-2.2 14.9-4.7 29.8L273 251a27 27 0 0 1-7-10.7l-.8-1.9c-7-17-10.4-38.9-3.2-56.4 14.2-33 14.2-33 25-33"/><path fill="#1481d0" d="M331.3 345.7c5 4.2 7.3 7.4 8 13.9.1 6.4-.2 10.3-4.3 15.4-2.9 2.6-5.4 4-9.3 4q-3.4-.3-6.7-1l-3-.6-2-.4v3l3.8 1c2.2 1.2 2.2 1.2 4.2 3q1.4 4.4 2 9c1.3 9 5 17 12 23l4 4v2c-8 .5-14.2-.6-20.6-5.6-7.1-6.6-12-15-12.5-24.7a201 201 0 0 1 .1-16.7l1-1 .2-4.3v-2.6l.1-5.5c.2-5.8 1-9 4.7-13.6l1.5-1.8c4.7-3.8 11.7-3.1 16.8-.5"/><path fill="#fbfdfd" d="M340 135q4.7.4 9.4 1.3l2.6.4 2.6.4 2.3.4c2.1.5 2.1.5 5.1 2.5l7 2v2l2 .8c9.3 3.9 15.4 9.8 21 18.2q1.7 6.4 1 13c-2.7 2.7-4.6 3-8.3 3.3-4.5-.4-5.9-1.5-9.1-4.4l-2.9-2.5-2.7-2.4c-5-4.1-10-7.3-16-10l-2.4-1.2q-5-1.3-10.4-1.6c-2.2-.2-2.2-.2-4.2-1.2a64 64 0 0 1 2-20z"/><path fill="#172a45" d="M395 299v3h-2l-2 5h-4l-1 3c-4.7 3.2-6.1 4-12 4v15h-3l-2 4q-1.2-8.4-1-17l-3.1.7A91 91 0 0 1 341 319l.5 2.6q.7 5 .6 10.3v3.5l-.1 2.6 1.6-.4q8.5-1.9 17.3-2.4l2.2-.1c3.8-.2 6.7-.3 9.9 1.9-2.5 3.1-4.7 3.6-8.6 4.1-3.5.3-3.5.3-6.4 1.9l-8 1.5c-5.1.8-5.1.8-10 2.5l3 7c.8 9 1 16.3-4.2 24-2 2.3-4 3.6-6.8 5h-3c1.8 13.9 5.8 24.2 17 33-3 2-3 2-5 2v2c-7.6-3.1-12.7-11-16-18.2a60 60 0 0 1-3-17.8l-2.4-.4c-2.9-.7-4.4-1.7-6.6-3.6l1-4 2 .4c7.6 1.8 7.6 1.8 15 .2l2-1.6h2l1-2.4c1-2.6 1-2.6 2-4.6.6-6.7.4-12.2-3-18-2.5-2.3-2.5-2.3-5-4l-2-2 2-2-1-2c3-1 3.9-1 7 0v-10h1l1 6h2l-1-10-2 3c-1-1-1-1-1.1-3v-5.1l.1-1.9c3.1-1.8 5.6-2.3 9.2-2.6l3-.3 3-.2 3.2-.3 7.6-.6-5-1v-2l-2-2 1.8-.4c15.8-3.2 15.8-3.2 30.6-9.5 2.8-1.2 4.6-1.3 7.6-1.1"/><path fill="#21304a" d="M335 118.9c6.6-.2 12.6.5 19 2.1v3l-3 1 2 2v2h-13v7l-3 .3c-16.1 1.7-16.1 1.7-31 7.7v-8a84 84 0 0 0-21 13l-2 1.7c-5.4 5-9.1 10.8-13 17l-6 9.3-1-2h-3c-1.1-3.6-1-4.8.4-8.3l1.6-2.7h2l.4-1.9c.6-2.1.6-2.1 2.6-4.1h3l-.6-1.8c-.7-4 1.4-7 3.6-10.2q3.7-3.8 8-7l2.2-1.7a91 91 0 0 1 51.9-18.4"/><path fill="#e5f2f6" d="M404 126.7a102 102 0 0 1 39.8 66.9c1.6 19.1.5 36.9-7.8 54.4-1-3.3-1-4 0-7.2l.6-2.5.8-2.6c7-25 4-50-8.4-73a121 121 0 0 0-19-23.7l-2-2.1c-14.8-15.4-33.7-22.2-54-26.9l-2.4-.6c-24.1-3.7-51.7 3-71.8 16.8-27.4 20.3-38.3 43.9-44.8 76.8h-1a85 85 0 0 1 21-59l2-2.4a106.5 106.5 0 0 1 147-15"/><path fill="#101422" d="m30 502 2.9 2.8c12.8 10.7 32.8 10.4 48.6 11.6l2.8.2q1.3 0 2.5.2c2.2.2 2.2.2 5.2 1.2l7.8.9 2.4.3a3446 3446 0 0 0 56.4 5.3l3.3.3 6.4.5 3 .2 2.5.2c2.2.3 2.2.3 5.2 1.3.8 2 .8 2 1 4l-1 1 7 1v1a112 112 0 0 1-27.2 0q-13-1-26-2.9-10-1.3-20.2-2.1a835 835 0 0 1-56.7-6.7A50 50 0 0 1 29 512c-.6-2.3-.6-2.3-.7-4.7L28 505 28 503z"/><path fill="#132b4a" d="M232 193h1v2.2a132 132 0 0 0 6 44.3 104 104 0 0 0 26 41.8l1.9 1.8A61 61 0 0 0 278 292l3.3 2.1c8.9 5.6 17.7 9.7 27.7 12.9l3.8 1.3c13.7 4 28 3 42.2 2.7-3.2 2.2-4.3 2.3-8.1 2.4l-3 .1-3 .1-3.2.1-7.7.3-1 3 4 1-7.6-.4h-2.2c-4.4-.3-8-1-12.2-2.6v-2l-2.1.6c-6.5.9-14.3-2.2-19.7-5.9L287 306l-1 4-.2-1.8c-1.1-3.1-3-3.6-5.8-5.2l-5.3-3.7-2.7-1.9-2-1.4-1 8h-2v-12l-4-2a105 105 0 0 1-21-25l-1.2-2a89 89 0 0 1-13.9-45.3V207l.1-8.9h2v3c2.6-2.6 2.5-4.5 3-8"/><path fill="#21293c" d="m254 490 2 2 5 2v2h3v3l1.9.3c2.1.7 2.1.7 4.1 3.7l3 1c-2.7 8.5-8.4 14-15.9 18.4A45 45 0 0 1 233 529c-2.4-1-2.4-1-4.7-2.3-3.7-2-7.1-3.3-11.2-4.2A74 74 0 0 1 200 516v-1l17-1-31-1v-1h3.8l20-.2c19.3 0 19.3 0 35.6-9.6q5-5.6 8.6-12.2"/><path fill="#16304c" d="M44 336h1a269 269 0 0 1-3.8 49.2q-1.7 9.6-2.9 19.3l-.4 3c-1.7 12.6-1.7 12.6 1.5 24.7 3.4 3.8 7.4 5.6 12.3 6.4l4 .2h2.2l12.5.6 14 .5 14.6.7 54 2.3c28.7 1.4 57.3 2.6 86 2.1l.9-1.9c1.3-2.5 3-4.2 5.1-6.1 0 3.4-.4 4-2.6 6.5l-1.4 1.8c-6 5.2-12.3 5.1-19.9 5h-3.3q-20.9-.5-41.7-1.5l-11.6-.5-106-4.5-4.6-.2-3.7-.1c-5.2-.8-8.3-2.6-11.9-6.4-9.5-12.9-4.8-29.6-2.8-44.6l1.7-13.2 4.5-33.7.3-2.6c.9-5.9.9-5.9 2-7"/><path fill="#112848" d="M446 180c7.3 7.3 6 19.2 6.2 28.8-.1 23.6-7 50-23.2 68.2h-2l-.3 2-.7 2-3 1-2 4c-1.6 1.6-1.6 1.6-3.4 3a28 28 0 0 0-5.4 5.4L411 296h-3l-1 3a69 69 0 0 1-19 11l-2-1 1-2h4l1-2.4c1-2.6 1-2.6 2-4.6l-2-2 2.5-1.6c11-7.4 20.9-15.4 28.5-26.4l1.7-2.5a103 103 0 0 0 18.5-58.9v-3.3q0-11.2-1.2-22.3h2l1 2z"/><path fill="#8f9ba9" d="M336 156q-2.6 22.5-6 45h-1v-4.3l-.1-2.4c.1-2.3.1-2.3 1.1-5.3l-5 2-1-1-.6 3.4-.8 4.5-.4 2.2c-1 5.7-1 5.7-2.2 7.9h-2c-2.5-6-4.6-11.7-6-18-2.1 3.5-2.5 7-3 11l-5 1 1-10.8.2-3L307 168l-5-1v-4a61 61 0 0 1 34-7m-30 7-1 3h3v-3z"/><path fill="#161929" d="M277 5c37.8-1.1 37.8-1.1 51 10a22 22 0 0 1 2 4l-6 4 .6 1.7c1.9 5.2 3 9.9 2.9 15.4v2.4c-.3 13.3-3.2 26.5-5.5 39.5l-3 17-6 2q-.1-8.9 1.3-17.8l.4-2.8 2.2-13.3c4-22 4-22-.6-43.3-3.8-5.4-8.7-8-15-9.3q-5-.7-10-.6h-11.7l-9.6.1-1-3 1-2-2-2h9z"/><path fill="#131f32" d="m299 44-1 3-2.2-.5c-11-1.5-21.8 0-32.7 1.2l-10.4 1q-21.3 2-42.3 4.6l-16.5 2q-9.6 1-19.2 2.2Q162.9 59 151 60q-11 1-22 2.9a251 251 0 0 1-20.2 2.4C100 66 92.3 66.8 86 74q-2.8 5-4.6 10.3C80 88 80 88 78 89c.8-11.5.8-11.5 3-17h2l.8-2c1.2-2 1.2-2 4.2-3v-2c8-4.6 17.2-5.3 26.2-6.3q1.5 0 2.8-.3l23.1-2.6q4.8-.4 9.5-1.3 4.9-.9 9.7-1 11.5-.6 23-2.4 24-3.5 48-5.8l3.1-.3 33-3.1 2.9-.3c22.3-2 22.3-2 29.7 2.4"/><path fill="#e5e7ec" d="M310 323a24 24 0 0 1 8.4 13.7c-.4 2.3-.4 2.3-2 3.7l-2.1 1c-5 2.8-7.2 6-9.4 11.2a54 54 0 0 0-1.5 12.8l-.1 2.5-.3 6.1c-7-2.4-12-7.7-15.4-14.2a38 38 0 0 1-2-24.3c4.1-9.3 14.4-15 24.4-12.5"/><path fill="#167ccb" d="M342 370c1.1 3.7 1.1 3.7 0 6.3-2 5.1-1.3 9.5.5 14.6 3.3 7.6 8 13.5 15.8 16.7A34 34 0 0 0 384 406l4-4c5.3-3 5.3-3 9-3-1.8 7-5 12-11 16a44 44 0 0 1-32 5.4q-12.5-4-19.7-15a79 79 0 0 1-3.3-7.4l-1.3-3c-1-4-.9-8-.7-12l3.7-1.4c5.2-2.6 7-6.5 9.3-11.6"/><path fill="#798493" d="M299 166q-1 13.3-3.4 26.2-4.8 27.3-8.6 54.8c-10.6-10.5-10.6-10.5-11.3-18 .5-7 2-13.9 3.5-20.8q1.8-10 3.2-20.4l.3-2.4.4-4.7c.3-3.6.5-5.3 3-8l2.8-1.6 2.7-1.7 2.4-1.4c3-2 3-2 5-2"/><path fill="#505a6b" d="M323 22c9 6.1 17.9 14.2 20.5 25.2 1.8 10.6 0 21.2-1.9 31.6l-.6 3.8c-1.3 6.9-1.3 6.9-2 9.4l-2 1-1-2c-2.8-5.9-2.8-5.9-6.3-11.5C328 77 328 77 328 75h-4q-.4-8.6 1-17c2-11.7 2.8-24.9-2-36"/><path fill="#e2e8ee" d="M138.3 461c3.1 2.1 5.8 4.3 6.7 8a23 23 0 0 1-3 15 17 17 0 0 1-12.1 6.2c-11.2.3-11.2.3-14.7-2a15 15 0 0 1-4.7-11.4c.1-5.3 1.3-8.3 4.8-12.2 6-5.6 15.4-6.8 23-3.6"/><path fill="#23334f" d="M297 96h3l-.3 3.8c0 2.2 0 2.2.3 4.2 2.3 2 2.3 2 5 3l1 2-3.3 1.3a108 108 0 0 0-60.8 56.7q-5.4 11.8-6.8 24.7c-.7 5.8-.7 5.8-2.5 8-1.7 1.2-1.7 1.2-4.6 2.3l1-4h-2c1-23 11-44.7 26-62l1.8-2.2A89 89 0 0 1 295 106l.4-3.9c.3-2.4.5-4 1.6-6.1"/><path fill="#41c2f8" d="M251 221h1l.5 2.4a87 87 0 0 0 17.3 37.2 90 90 0 0 0 52.8 32q7.5.8 15 .6h3.3c9.6 0 18-1 27.1-4.2h5c-3 2.5-5.5 3.7-9.3 4.6l-2.8.8c-23 5-48.8 2.3-69-10.3q-2.1-1.4-4.1-3.2c-2.5-1.3-4.1-.6-6.8.1-3 0-3 0-6-2-.2-3.6-.2-3.6 0-7l-2-1v-2h-5v2l-3 1a60 60 0 0 1-22-29v-3h2l2-6h3z"/><path fill="#116cbc" d="M382 425a35 35 0 0 1-.5 24c-3.2 3.7-5.9 5.6-11 6.3-5.4.4-8.8.1-13-3.5-4.1-3.9-5.4-7.2-5.7-12.8v-4.3l.1-2.3.1-5.4h1.8l11.2.2c6 0 11.3-2.2 17-2.2"/><path fill="#64d5f9" d="M331.3 345.7c5 4.2 7.3 7.4 8 13.9.1 6.3-.3 10.3-4.3 15.4-2.1 1-2.1 1-4 1l-2-2-1 1h-8l-1-5-5-1v3h-2l-1-4-2 2-.2-7.6-.2-2.2c0-6.1 2-9.3 5.9-14 4.7-3.8 11.7-3.1 16.8-.5"/><path fill="#1f2c45" d="M287 261h2v2l1.6.8q4.4 2.4 8.5 5 8 5.2 16.9 8.2v7l6.6.7c2.4.3 2.4.3 4.2.8a38 38 0 0 0 10 1h3l3 .2 7.2.3-2 1.4-2 1.6v1l7 1c-7.6 5-22.7 2.8-31.5 1.4-16.4-3.7-34.2-11.8-44.5-25.4h3l-1-3 2-2 5 3z"/><path fill="#d9dbdf" d="M304 136h2l1 7 2-1.4q5-2.6 10.6-3.8l2.1-.5A55 55 0 0 1 339 136l-.2 1.8q-1 10-1.8 20.2l-1-2c-12.2.2-25 1.2-35 9h-2c-1.4-4.2-.5-6.5 1.2-10.5 1.4-4.4 1.8-9 2.4-13.5.4-3 .4-3 1.4-5"/><path fill="#c3c7ce" d="m277 301 4 2a390 390 0 0 1-2.6 19.8l-.5 3.3a11516 11516 0 0 1-19 117.9l-3.9 25.6c-2.2 13.8-6.6 25.3-18 34l-5 2.4-3-1 2-1c9.6-5.2 14-12 17-22.3 4-15.3 5.8-31 8-46.6q2.4-16.8 5-33.6l.3-2.5q3-20 6.7-40 2.1-12.7 4-25.5 1.4-9 3-17.8 1.4-7.4 2-14.7"/><path fill="#171b29" d="M17 452h1v2l-.2 9.4-.2 3.2c0 7.7.7 15.2 6 21.2 11 9.3 29.1 8.5 42.7 9.9L89 500v4c-11 .4-21.4-.6-32.2-2l-7.8-1c-14.8-2-14.8-2-22.1-3.7-2.2-.4-2.2-.4-5.9-.3-2.2-.4-2.2-.4-4-1l-1-2h-2a44 44 0 0 1-4.4-22v-2.7c0-4.4.2-7.4 2.4-11.3h2l1-2z"/><path fill="#bbbec6" d="M312 18a28 28 0 0 1 8.5 20.8v5.3c-.3 10.7-2.2 21.2-4 31.7A589 589 0 0 0 313 100l-4 1q1.3-13.3 3.6-26.4c5.5-25.2 5.5-25.2-.2-49.3a27 27 0 0 0-20.1-7.4h-12.5c-12.2-.7-12.2-.7-23.8 2.1l-5.2.5-3.2.3-3.3.3-3.3.2q-7.5.6-15 .7l-1-2-3-2a2930 2930 0 0 1 52.5-4.4c27.2-2 27.2-2 37.5 4.4"/><path fill="#516177" d="M324 189h6q-.4 14.2-2.8 28.2-1.5 8-2.2 16-1 10-3.3 19.7-1.4 6.5-1.7 13.1l-7-1a136 136 0 0 1 1.7-22.9l.8-6.4c1.4-10.6 1.4-10.6 2.5-11.7l.4-5q.6-8.3 2-16.4l.4-2.4c.7-4 1.5-7.5 3.2-11.2"/><path fill="#536074" d="M306 163h2v3h-3zm-2 3 4 2c-1.8 17-1.8 17-3 24.9q-.9 5.7-1.4 11.6-1.4 15.8-4.8 31.2-2 8.6-2.8 17.3c-4.7-.7-4.7-.7-7-3 .1-3 .1-3 .6-6.9l.3-2.1q1.6-10 3.7-19.8 1.7-8.2 2.1-16.3.6-5 1.7-10l1.6-9.3.5-3.3 1.5-10 .4-3 .6-2.3z"/><path fill="#26aef1" d="m417 247 2 2c-.3 3.9-2.6 6-5 9l-3 6-3-1v6h-2q-3.7 2.9-6 7a14 14 0 0 0 2 7 63 63 0 0 1-17.3 10q-3.5 1.3-7 3c-15.9 7-32.5 7.7-49.7 7v-1l24-1v-5h6v-2l13-4v-2l3-1.4a92 92 0 0 0 43-39.6"/><path fill="#374053" d="M55 216h1l1 7 4-2c1.6 1.6 1.2 3 1.2 5.2q-.3 9.6-1.7 19l-.2 2q-3 22.8-6.4 45.4l-.6 3.7-1.5 10.4-.5 3.2q-.9 7.2-3.3 14.1l-1.1 5.4-.5 2.6-.4 2h-1a92 92 0 0 1 1.4-19.1q3.2-20.7 5.5-41.5l1.3-11 .5-3.8q.4-5.3.3-10.6l-3 2c-.2-7 0-13.5 1.5-20.4q.7-3.7 1-7.7c.5-3.9.5-3.9 1.5-5.9"/><path fill="#75e0fb" d="m380 119 3.1 1.4a65 65 0 0 0 7 2.5 44 44 0 0 1 14.8 10.3l1.6 1.5 6.8 6.4c7.8 7.5 13.5 16 18.6 25.5l1.1 2.1c2.6 5 4 9.8 5 15.3-2.6-3-3-3.7-3-8h-2c-1.3-3-2-4.8-2-8l-4-1v-3l-2 1-.2-1.8c-.9-5.6-.9-5.6-4.8-9.5l-3-1.7c-1.4-2.2-1.4-2.2-2-4l-3 8-1.7-2.2c-4.7-5.9-9.4-11.1-15.3-15.8l-2.2-1.8A59 59 0 0 0 372 124c3-2 3-2 5.1-2.5l1.9-.5z"/><path fill="#babfc9" d="M274 242h2l1 1.7q3 6 6.8 11.2c2.2 3.1 2.2 3.1 2.2 5.1h2l1-9c3.4 1.2 6.1 2.6 9 4.8a85 85 0 0 0 21 10.2l-2 16h-1v-5l-2.5-.2c-4.4-1-7.7-2.9-11.6-5.1l-2-1.2A59 59 0 0 1 289 263v-2h-2v6l-7-6-2.3-2c-5.7-5.6-5.7-5.6-5.8-9.8q.8-3.7 2.1-7.2"/><path fill="#101627" d="M141 458c4.4 2.8 6.8 6 8 11 .8 6.5 0 11.3-3 17h-2l-.6 1.8c-2.4 3.9-6.1 5.8-10.4 7.2l-4.4.2h-2.3c-2.5-.2-4.1-1-6.3-2.2l1-2 5-.3a22 22 0 0 0 16-7.8c2.3-4.3 2.5-9 2-13.9-1.8-4.3-4-6-8-8-6.1-1-12.2-1-17.6 2.2-3 2.3-5.1 4.1-6.4 7.8-.7 7.8-.7 7.8 2 15 3 2.2 3 2.2 6 4l-1 3c-3.7-.5-5.8-.9-9-3-3.2-4.7-5.3-8.4-4.4-14a28 28 0 0 1 10.4-17.4c8.6-4.5 16.3-5.3 25-.6"/><path fill="#e1edf2" d="M345 104v1l-18 1-1 2c-1.7.7-1.7.7-4 1.3l-2.5.8-2.7.7q-12.2 3.4-23.8 8.2l-2.6 1.1a96 96 0 0 0-47.5 51.3c-3.6 10.2-5.8 21-7.9 31.6h-1a85 85 0 0 1 21-59l2-2.4c23.5-27 52.5-39 88-37.6"/><path fill="#1c72bd" d="M368 316v18l-10.7 2-3.1.6-3 .5-2.7.5c-2.5.4-2.5.4-6.5.4l-1-19 9.2-1.2 1.8-.3 2-.2 5.7-.9c3.3-.4 3.3-.4 8.3-.4"/><path fill="#47526a" d="m408 122 5 2v2l1.8.8c5.7 3.1 10.3 9 14.2 14.2v2h2q2.6 3.6 4.8 7.3l1.4 2.2A97 97 0 0 1 446 171l1.2 3.5c3.2 9.7 3.2 9.7 1.8 13.5l-2-6-2 4-1-3-3 1-.9-2.9c-4.7-14.9-11.4-28.4-21.9-40.2-3.1-4-2.6-6-2.2-10.9l-4-2v-3h-5z"/><path fill="#121d33" d="m351 426 3 1h-2l.3 7.6v2.2c.4 6.2 2 10.3 6.2 15 3.7 3 7.4 2.8 12 2.6 4.4-.7 6.7-2.7 10-5.5 2.5-1.9 4.6-2.9 7.5-3.9 1.1 4.3 1.4 6.2-.8 10.1a28 28 0 0 1-19.2 8.5c-7-.3-12.7-2.5-18-7.4-4-4.7-5-9-5-15.2h1l2-7h2z"/><path fill="#1b7bcc" d="M235 216c1.8 2.8 2.3 4 3 7a82 82 0 0 0 27 48v2l1.7.7c2.8 1.6 5 3.5 7.6 5.6q6.5 5.4 13.7 9.7v1l-5.6.8-3.2.4c-9.1-.5-17.4-11.7-23.3-18-4.6-5.3-7.9-11-10.9-17.2l-1-2c-5.7-11.8-11.8-24.7-9-38"/><path fill="#333c4f" d="M287 306q4.8 1.9 9.4 4 5.6 2.5 11.6 4l1-2 4 1 1 2 3 2-6-1-1 7c-3 1-3 1-6.6.7-5.6 0-9.4 2.6-13.4 6.3-4.7 5.8-4.8 12.8-5 20h-1v-7h-2c-.3-7.5.6-14.5 2-21.9l.5-3q1-6.1 2.5-12.1"/><path fill="#1796db" d="M252 382c1.5 4 .5 7.4-.3 11.4A245 245 0 0 0 248 416l-.3 2c-2.6 18-2.6 18-8.7 24-7.3 4.5-14.3 4.5-22.6 4.3h-4q-20.6-.4-41-1.5l-10.5-.5-60-2.8-13.4-.6h-2.1l-2.1-.2L67 440v-1l34.9-.1h8c2.1.1 2.1.1 5.1 1.1h13.8c26.2-.1 26.2-.1 32 1.5 2.6.6 4.8.6 7.4.6h3l3.2-.1c8.6 0 17 0 25.6 1v-2l2 1-1 2h4v-2h3l2 2q5 .4 10-1v2l4-1v-3c2.4-.6 2.4-.6 5-1l2 2 2 1 1-2 2.4-.8c2.8-1 2.8-1 3.7-3.6l.7-3 .7-2.8c.5-2.7.6-5 .5-7.8h2l1-3-3-1 1-3 2-1c.9-3.2.9-3.2 1.6-7q0-1 .4-2 1-5.7 1.5-11.4c.4-4.7 1.7-8.4 3.5-12.6"/><path fill="#162741" d="m278 292 6.8 4.1c7.7 4.9 15.5 8.2 24.2 10.9l3.8 1.3c13.7 4 28 3 42.2 2.7-3.2 2.2-4.3 2.3-8.1 2.4l-3 .1-3 .1-3.2.1-7.7.3-1 3 4 1-7.6-.4h-2.2c-4.4-.3-8-1-12.2-2.6v-2l-2.1.6c-6.5.9-14.3-2.2-19.7-5.9L287 306l-1 4-.2-1.8c-1.2-3.1-2.9-3.6-5.8-5.2l-4.8-3.5-2.4-1.8-1.8-1.7v-3c2.6-1.3 4-1.3 7-1"/><path fill="#c2c7d2" d="M299 173h2a84 84 0 0 1-1.8 19.3 60 60 0 0 1-2.2 9.7l-.7 6.4q-1.8 13.8-4.5 27.4-2 9.8-2.6 19.9c-.2 2.3-.2 2.3-1.2 4.3h-2l-4.6-6.7-1.2-2a27 27 0 0 1-4.2-9.3h-2l.4-4.4.2-2.5.4-2.1 2-1 1.2 2 1.6 2.8 1.6 2.6q2.1 3.4 4.6 6.6l.6-4 8-52.5q0-1.2.3-2.3A61 61 0 0 1 299 173"/><path fill="#25364e" d="M266 292h1v12h2q-.4 10.4-2.4 20.6-1.4 8.8-2.5 17.5A95 95 0 0 1 261 357l-1 7.7q-.6 5.7-2 11.3l-.9 5.7A95 95 0 0 1 250 406c-1.5-3.9-.5-7.3.3-11.2q1.7-8.4 2.7-17 .8-7.2 2.4-14.4 2.1-9.9 3.3-20 2-16.2 4.5-32.3l.4-2.9z"/><path fill="#28344e" d="M446 180c7.4 7.4 6 19.4 6.1 29q0 9.6-1.1 19h-2l-.4 1.6c-2.2 8.6-2.2 8.6-3.6 11.4-2.3-2.2-4-3.8-4-7.1a98 98 0 0 1 1.5-9.4c.7-5.2.6-10.3.6-15.6v-3.3q0-11.3-1.1-22.6h2l1 2z"/><path fill="#2d3038" d="M277 6c-2 2-3.6 3.4-6 5l-1 3c-13 4.3-28.5 3.3-42 3v-4q-8-.3-16 1h-8v-1q22.4-3.7 45-5.7L251 7Q264 5.8 277 6"/><path fill="#1c2537" d="m299 44-1 3-2.2-.5c-11-1.5-21.7 0-32.6 1.2l-11.2 1-2.1.3-14.3 1.3-3.5.3q-4.1.5-8.1 1.4h-8v-5a1637 1637 0 0 1 46.9-4.9c28.3-2.7 28.3-2.7 36.1 1.9"/><path fill="#2f9cd1" d="m324.7 117.6 15.5-.1a86 86 0 0 1 62.4 26c6 6.2 12.3 13.3 15.4 21.5l-1 3-1.1-2.2A90 90 0 0 0 332 120h-2.8a81 81 0 0 0-52.3 24.2C275 146 275 146 273 146l-1 3h-2l-.9 2.4C268 154 268 154 266 155l1-5h2v-2h2l.7-1.7c6.5-11.5 22.8-19.9 34.8-24.3 2.6-1 2.6-1 5.6-2.5 4.2-1.8 8-2 12.6-2"/><path fill="#24b6f5" d="M311 367h1v5h2v-3h6c1 3 1 3 0 6l3.8-.5q3.6-.5 7.2-.5l1 3c-3 1.8-5 2.2-8.4 1.7l-2.4-.3-7.2-1.4v3l8 4q.1 7.6-1 15c-3.2.4-3.2.4-7 0-4-3.3-5.2-5.7-5.8-10.8l-.4-7.6c-.2-5.3.8-8.9 3.2-13.6"/><path fill="#101321" d="m321 44 1 2c2 .7 2 .7 4 1 .4 9.1-.7 17.6-2.4 26.6l-.6 3.7-3.2 17.1-.8 4.6-6 2q-.1-8.8 1.3-17.5l.3-2.7C319 51.5 319 51.5 321 44"/><path fill="#082744" d="m314 376 2 .4 13.3 2.2 2.7.4-1 2h-3v11h2l.7 2a45 45 0 0 0 15.3 22c-3 2-3 2-5 2v2c-7.6-3.1-12.7-11-16-18.2a60 60 0 0 1-3-17.8l-2.4-.4c-2.9-.7-4.4-1.7-6.6-3.6z"/><path fill="#949ba7" d="M323 22a49 49 0 0 1 20.8 25.4q.6 6.3.2 12.6l-2 2-2.3-2.7-3-3.6-1.5-1.8-1.5-1.8-1.3-1.6-3-3c-2.2-2.4-2-5-2.4-8a83 83 0 0 0-4-17.5"/><path fill="#9197a6" d="m26 496 3.7.9c6.2 1.4 12.5 2.1 18.8 3l16.4 2 2.2.3A1053 1053 0 0 0 132 509l3 .2q42.4 2.8 85 3.8v1c-54.7.4-54.7.4-78.6-1.8l-8.2-.7a2751 2751 0 0 1-74.7-7.3A200 200 0 0 1 26 498z"/><path fill="#1c2337" d="M304 379h1l.1 2.4c.4 7 1.4 13.4 3.3 20.1.6 2.5.6 2.5.6 5.5l2 1-1 7c-4.8 0-9.2 0-14-1v-2l-6-1 1-12 4-1 2 3c3 .7 3 .7 6 1l-.5-2q-.8-5.5-.7-11.2v-2.2q0-2.8.2-5.6z"/><path fill="#1a78c6" d="M295.8 292.9A99 99 0 0 0 322 301c-1.3 2.4-1.3 2.4-3 5-12 3.2-22.8-2.2-33.1-7.9q-4.6-2.7-8.9-6.1v-1c7.2-1.8 12.4-1.7 18.8 1.9"/><path fill="#2d3649" d="M323 70h1v5h4q2.4 3 4.1 6.3l1 1.7q2.7 4.5 4.9 9l1 2c-.7 2-.7 2-2 4-2 .6-2 .6-4.2.7l-2.5.1-2.3.2-3.4.6c-2.6.4-2.6.4-4.6-.6-.6-10 1.2-19.3 3-29"/><path fill="#1c293c" d="m138 57-2 5q-13.4 2-26.8 3.2c-9.2.9-16.9 1.6-23.2 8.8q-2.8 5-4.6 10.3C80 88 80 88 78 89c.8-11.5.8-11.5 3-17h2l.8-2c1.2-2 1.2-2 4.2-3v-2c9.1-5.3 20-5.6 30.3-6.6l3.7-.4q8-1 16-1"/><path fill="#56d2fb" d="m293 130-2 1.1c-5 3-9 5.6-13 9.9q-1.6 1.4-3.2 2.7c-2.8 2-2.8 2-3.8 4.3h-2v2h-2l-2 5-1-2-6-2v-2a32 32 0 0 0-7.7 11.3l-1 2-2.3 4.7h-2c3-9.6 8.5-19.2 16-26h2l.8-1.9c1.4-2.5 2.5-3.1 5.2-4.1h3v2h2l1-5 4 1v2h3l1-3c6.3-3.2 6.3-3.2 10-2"/><path fill="#ceebf3" d="M254 235q3.4 4.4 5.6 9.5c3.4 6.8 7.7 12.6 12.4 18.5l1.9 2.5A86 86 0 0 0 326 293q5.8.2 11.6.2h3.3c9.6 0 18-1 27.1-4.2h5c-3 2.5-5.5 3.7-9.3 4.6l-2.8.8c-23.5 5.1-49 2-69.6-10.5q-4.2-2.8-8.3-5.9l-1.8-1.3A72 72 0 0 1 270 265l-2.2-2.7C254 244.7 254 244.7 254 235"/><path fill="#18243c" d="M319 93h1v6c4.1.2 4.1.2 8-1l7-.5c2.4-.3 2.4-.3 4-3.5v4l7-1v2l5 1-1 4h7v1h-2.6c-21.1-.6-21.1-.6-42 2.4-4.1.7-7.3.3-11.4-.4v-3c3.5-2 6.9-2.8 10.8-3.6l3.5-.8 2.7-.6z"/><path fill="#0e223e" d="m347 417 1.7.6a72 72 0 0 0 23 3l3.8.2 9.5.2-1 3h-4l-3 3c-4 1.3-8.2 1.2-12.4 1.2h-2.3c-4.2 0-7.4-.3-11.3-2.2l-.4 4c-.2 2.2-.2 2.2-.6 4l-2 1c-.5 1.9-.5 1.9-.6 4l-.4 4c-2.6-2.6-2.3-4.2-2.3-7.7v-4.4c0-3.9.1-5.7 2.3-8.9.2-2.6.2-2.6 0-5"/><path fill="#1863ac" d="M382 425v3h-4v2l-1.8 1a75 75 0 0 0-12.2 8h-2l-1 5h-5l2 7c-3.6-2.3-4.8-4-6-8q-.2-4.2-.1-8.3v-2.3l.1-5.4h1.8l11.2.2c6 0 11.3-2.2 17-2.2"/><path fill="#196eb9" d="m384 298 6 1c-15.5 12.6-42 14.5-61 13.3-7.9-.8-15.4-3-23-5.3v-1h1.8c4.5.2 8 .1 12.2-2v-2c5.8-.2 10.4.4 16 2v6l3.7-.5q9-.9 18.3-.5v-2l2-.2q7.5-.7 15-1.8v-2l3-1v-2h6z"/><path fill="#7b8592" d="M332.3 129h7.7v7l-3 .3c-16.1 1.7-16.1 1.7-31 7.7v-8l-2-1 7.2-2.4 2-.7a54 54 0 0 1 19.1-3"/><path fill="#7a8796" d="M329 156h7q-2.6 22.5-6 45h-1v-4.3l-.1-2.4c.1-2.3.1-2.3 1.1-5.3l-2.4 1-2.6 1-2-1 1.9-13 .5-3.8c.9-5.9 1.7-11.5 3.6-17.2"/><path fill="#0d1221" d="M209 35c-.6 1.9-.6 1.9-2 4a99 99 0 0 1-35 4c-.6-2.4-.6-2.4-1-5 2.4-2.4 3.5-2.4 6.9-2.9l3-.3 3.1-.4 3-.4c17.2-2.2 17.2-2.2 22 1"/><path fill="#52677d" d="m288 172 2 1-1 1-.9 6.5q0 1-.3 2l-.7 6.4q-1.4 12.3-3.6 24.5-1.2 6.6-2.1 13.3l-.4 2.7-1 6.6c-2.7-2.2-4-3.2-4.3-6.7q1.2-10.6 3.5-21 2.7-13.7 4-27.6c.6-5.5.6-5.5 2.9-7.7z"/><path fill="#11131d" d="M287.6 5.9h2.8q7.4 0 14.6 1.1v2l5-1c-6 6-6 6-9.2 6.1h-6.6L270 14l-1-3 1-2-2-2q9.8-1.2 19.6-1.1"/><path fill="#313949" d="m358 312-1 2h8a13 13 0 0 1-8 2.6l-3 .2-3 .3-6 .4-2.7.2c-2.5.2-2.5.2-5.3 1.3v9l3-4 .7 5.8.4 3.3c-.1 2.9-.1 2.9-1.3 4.7-4.5 3-9.5 2.2-14.6 1.8l-7.2-.6v-1h16l-1-18-16-2v-1h12l1-4h2l8.8-.4 3.1-.2h3l2.7-.2c7.2-.6 7.2-.6 8.4-.2"/><path fill="#1d2d46" d="M69 146h2c3.3 10 .4 21.7-1.3 31.9l-1.4 8.7-.3 2.2q-1.8 11.2-3 22.4l-.3 2.6-.3 2.3C64 218 64 218 62 221c-2.5-3.8-2-6.2-1.4-10.4l.3-2.4L62 200l4.6-35.7z"/><path fill="#2c3b53" d="M449 228h1c-1 15.9-9 32-18 45l-4-5c1.8-1.6 1.8-1.6 4-3l3 1v-3l-3 1c0-4 0-4 2-7l.9-5c1-5.8 2.8-10.7 5.1-16 3.9 1.9 3.9 1.9 5 3l.9-3.8a18 18 0 0 1 3.1-7.2"/><path fill="#1a273f" d="M48 440a974 974 0 0 1 44.3.7h2.2q4.8.1 9.5 1.3l6.5.3 3.8.1 4 .2h4l9.7.4-2 3q-3.6.4-7 .2h-2.3l-7.7-.2h-2.8L82 444.8c-11.4-.5-22.7-1.2-34-2.9z"/><path fill="#d0e6f4" d="M407 240c1.2 2.6 1.2 2.6 2 6-1.4 3-1.4 3-3.7 6.2l-1.2 1.7c-5 6.6-11.3 14.9-19.1 18.1 0-7 0-7 1-10l6-5c1.1-1.9 1.1-1.9 2-4l2.5-3.4c2-2.8 3.3-5.4 4.5-8.6 2-1 2-1 6-1"/><path fill="#21232d" d="m133 24-1 2-5 1.1-2.8.5-2.2.4v6l-9.9 2-2.8.5-2.7.5-2.5.5c-2.1.4-2.1.4-4.1 1.5h-7l-2-7q14.6-3.9 29.5-6.4 3-.4 5.8-1.2 3.4-.6 6.7-.4"/><path fill="#c0c3c9" d="m298 13-3 2 2 2h-2.5l-15.3.6c-11.9-.3-11.9-.3-23.2 2.4l-5.2.5-3.2.3-3.3.3-3.3.2q-7.5.6-15 .7l-1-2-3-2q24.6-2.3 49.3-4.2l3.2-.2q11.8-.8 23.5-.6"/><path fill="#61cff5" d="M247 272q4.7 4.6 9 9.9 4 4.1 8.5 7.9c3.3 4.9 1.3 12.5.5 18l-.3 2.2-2.4 15.7-.3 2c-.6 3.4-1.2 6.3-3 9.3-.3-8.1.4-16.2 3-24l-2-1h2c.3-8.7.3-8.7-2-17h-4l1-8-5-1-1 2c-1.6-1.6-1.6-1.6-3-4 .3-3.2.3-3.2 1-6-3.8 0-4.5 1-7.2 3.5l-2.2 2-1.6 1.5-1-2 3-3h2v-3l4-1z"/><path fill="#1ea5ef" d="M378 428h4c1 12.9 1 12.9-2.4 16.9-4.4 1.3-8 1.8-12.6 1.1-2.6-1.5-2.6-1.5-4-3 0-2.1 0-2.1 1-5q5.9-6 14-8z"/><path fill="#daf3f9" d="M296 87h1l.1 5 .1 2.8c-.5 7.8-.5 7.8-2.2 11.2a33 33 0 0 1-8.2 4.8l-4.6 2.1-2.1 1a65 65 0 0 0-8.1 5.1l-2-1 1-3h2l1-1.9 2-4.1h2v-2l2-1.6c3.2-2.6 5.7-5.4 8.4-8.5q2.6-3 5.6-5.9h2z"/><path fill="#192e4a" d="m54 259 3 2a50 50 0 0 1-.3 9.6 352 352 0 0 1-4.4 33.5l-1.2 7.6q-1 6.3-3.1 12.3l-1.1 5.4-.5 2.6-.4 2h-1q-.4-9.6 1.4-19l2-14.2.4-2.8 3.2-25.8.4-3 .3-2.7q.5-3.7 1.3-7.5"/><path fill="#6ec3e5" d="M60 240h1a40 40 0 0 1-1 21v3.1c0 2.9 0 2.9-1 5.3-1.1 2.9-1 5.3-1 8.4 0 3.3-.8 6.3-1.5 9.5q-1 5.6-1.3 11c-.2 2.7-.2 2.7-.7 5.4q-1 7.7-1.7 15.4-.7 6-1.8 11.9-2 9-3 18l2 1-2 2-1 4h-2a1362 1362 0 0 1 4.2-36.6l.3-2.4a4216 4216 0 0 1 8.4-61.5q1.2-7.7 2.1-15.5"/><path fill="#edfbfd" d="M332.5 104.5h3.2l3.4.1h3.2c11.3.2 21.7 2 32.3 5.7l2.7.8q3.5 1 6.7 2.9c1.6 3.2 1.6 3.2 2 6l-2.2-.9q-14.6-5.7-29.8-9.1l-2.3-.5q-4.5-.7-9-.6h-11.3l-9.4.1c3.6-3.3 5.7-4.5 10.5-4.5"/><path fill="#333d50" d="M387 445c2 3 2 3 1.9 5.4-1.8 5.2-4.7 7.8-9.4 10.4-5.7 2.7-11.2 3-17.5 2.2-2.9-1-2.9-1-5-2 3-1 3.9-1 7 0v-3l-2-1h11l-9-1v-1l2.4-.2c6.3-.8 10.6-1.7 15.1-6.4 1.7-1.6 3.4-2.4 5.5-3.4"/><path fill="#eafcfd" d="M370 346c6.4-.7 10 1 15 5a36 36 0 0 1 11 20v13h-2l-1-3.6c-3.8-12.2-8.4-24.7-20.3-31.2L370 348z"/><path fill="#191b26" d="M277 5c37-1 37-1 51 10l2 3h-3v2l-3 1-1-3-3 2-1.7-1c-2.2-1.2-2.2-1.2-4.2-.4-2.8.5-3.9-.2-6.4-1.5l-2-1.2-1.7-.9 1-3h2V9h-2V7l-28-1z"/><path fill="#e1f4fc" d="M285 161h1l-.4 6.8-.3 3.8c-.3 3.4-.3 3.4-1.3 6.4h-2l-.7 2c-1.3 3-1.3 3-3.3 6.3a28 28 0 0 0-3.4 10.9l-.6 1.8-3 1v-5.4l-.1-3.1c.1-2.5.1-2.5 1.1-3.5.2-3.6.2-3.6-1-7l1.4-1.2c1.9-2.1 2.5-4 3.5-6.7A22 22 0 0 1 283 163z"/><path fill="#0f121c" d="M228 13v2l4 2v1a255 255 0 0 1-37 3l-1-6c4.3-1.4 8.6-1.7 13-2.1l2.8-.3q9.1-1 18.2.4"/><path fill="#19253b" d="M402 363h2c4 12.3 4.6 25.5 1 38l-7 2v-5h2v-2.8l.7-21v-3.9q.3-3.7 1.3-7.3"/><path fill="#28a0d7" d="m67 439 34.9-.1h8c2.1.1 2.1.1 5.1 1.1h13.8c26.2-.1 26.2-.1 32 1.5 2.6.6 4.8.6 7.4.6h3l3.2-.1c8.6 0 17 0 25.6 1v-2l2 1-1 2q-43.5.3-87-1.9l-16-.7-31-1.4z"/><path fill="#364057" d="m408 122 5 2v2l1.8.8c5.7 3.1 10.3 9 14.2 14.2v2h2c1.8 2.3 1.8 2.3 3.7 5.4l2 3 1.3 2.6-1 2c-4.9-4.7-4.9-4.7-6-7l-2.2.8c-2.8.2-2.8.2-5.2-1.8l-2.4-2.8-2.3-2.8c-3.4-4.3-3-7-2.9-12.4l-4-2v-3h-5z"/><path fill="#15a0e2" d="M307 375h1l.3 3.8.4 4.9.2 2.5c.5 5 1.2 8.2 5.1 11.8 3.6.9 3.6.9 7 1l-.1-3.3c.1-3.7.1-3.7 2.1-6.7l2 18 3 1c-3.7 1.3-6.4.7-10.1-.3l-3.2-.8c-2.7-.9-2.7-.9-4.7-2.9-4.4-9-3.3-19.3-3-29"/><path fill="#626c7d" d="M287 261h2v2l1.6.8q4.4 2.4 8.5 5 8 5.2 16.9 8.2v6a51 51 0 0 1-29-15c-.6-4-.6-4 0-7"/><path fill="#7ccce2" d="M374 341q5.4 1.8 10 5l2.7 1.7c4.4 4.4 8.8 9 9.7 15.4q.1 4-.4 7.9-1.6-3-2.8-6c-2.8-7.2-6.7-12.8-13.2-17a41 41 0 0 0-10-2l-1-3-13 2v2l-3 3 2 1-6 1c1.5-3.4 3.3-5.5 6-8l1.7-1.6c5-3 11.7-2 17.3-1.4"/><path fill="#1b253a" d="M278 292v3h2v2l3 1 3 2v2h2l2 2 2.3-.6c2.7-.4 2.7-.4 5.5 1l2.2 1.6v2l5 2v3c-7-.6-12.2-3.1-18-7l-1 4-.2-1.8c-1.2-3.1-2.9-3.6-5.8-5.2l-4.8-3.5-2.4-1.8-1.8-1.7v-3c2.5-1.2 4.3-1 7-1"/><path fill="#ced2d9" d="m82 46 4 2-1.1 1.3C74.8 61.4 73.6 76.9 72 92h-3c-.6-16.7 1-32 12-45z"/><path fill="#2e96cb" d="M325.2 117.7h2.6l13.7.2 13.5.1v1h-3c-25.7.5-25.7.5-50 8l-2 1a85 85 0 0 0-23.1 16.2C275 146 275 146 273 146l-1 3h-2l-.9 2.4C268 154 268 154 266 155l1-5h2v-2h2l.7-1.7c6.5-11.5 22.8-19.9 34.8-24.3 2.6-1 2.6-1 5.6-2.5 4.4-2 8.4-1.9 13.1-1.8"/><path fill="#132440" d="M347 417c.6 2.3.6 2.3 1 5l-2 3c-.5 3.2-.5 3.2-.6 6.7l-.3 3.6-.1 2.7h-1v-10l-3 1c-8 .7-15 .1-22-4l-2-3h5v2h2v2h5l-1-4c3-1 4.5-1 7.7-.6l2.4.3 1.9.3.4-2 .6-2c2-1 2-1 6-1"/><path fill="#2b2e38" d="M332.3 18.4c6 3.5 10.1 8.8 13.7 14.6l-1 2-7 2-1.8-2-2.4-2.8-2.4-2.7q-2.9-3-6.4-5.5c1.5-3.5 3-6.4 7.3-5.6"/><path fill="#1a2c42" d="M78 92h2q0 7.8-.8 15.5 0 1-.3 2l-1.3 10.8c-.8 6.7-1.7 13.2-3.6 19.7h-2l1 6c-2-2-2-2-2.2-4.2q0-10 1.5-20l.4-3q1.3-9.3 3-18.7L76 98c.9-4.9.9-4.9 2-6"/><path fill="#d6edf2" d="M438 174q2.2 4.3 3.6 8.8l.7 2.4c5 20.5 2.6 43.8-6.3 62.8-1-3.3-1-4 0-7.2l.6-2.5.8-2.6a89 89 0 0 0 1-48.7 25 25 0 0 1-.4-13"/><path fill="#253853" d="M237 160c1.3 4.2.3 6.8-1 11v4h-2l1.1 3.6c1.5 6.6.8 13-1.1 19.4-2 2.3-3.1 2.9-6 4l1-4h-2c.6-13.4 4.5-25.8 10-38"/><path fill="#184869" d="M260 333h1q.1 9.2-1 18.3l-.2 2.4c-.7 5.8-.7 5.8-1.3 8.4q-.7 3.5-.4 7c.1 13-2.9 25-8.1 36.9-1.5-3.9-.5-7.3.3-11.2q1.7-8.4 2.7-17 .8-7.2 2.4-14.4c2.3-10 3.4-20.2 4.6-30.4"/><path fill="#71ddfc" d="M292 120h3v2l2 1-4 2 4 2-3 1.3-2 .8-4 1.7c-3.7 1.3-3.7 1.3-6 4.2h-3l-1-2-3-1-1 5h-2v-2l-6 2c11.2-12 11.2-12 17.8-12.1l3.2.1c2.8-2.4 2.8-2.4 5-5"/><path fill="#092b4d" d="M338 346c2.8 1.4 3 3.1 4 6l1 2c.8 9 1 16.3-4.2 24-2 2.3-4 3.6-6.8 5h-3v9h-1v-11l3-1-3-2c4.8-3 4.8-3 7-3l1-2.4c1-2.6 1-2.6 2-4.6q.4-4.5.6-9.2c.4-2.8.4-2.8 2.4-5.8l-3-1z"/><path fill="#143056" d="M434 251h1c.4 5.4.4 5.4-1.5 8.4L432 261l1 2h2v3l-1.9.4c-2.1.5-2.1.5-4.1 1.6l2 5-2 2c-3.1-.4-3.1-.4-6-1v1l3 2-1 3h-6l-1 3q-3.3 2.4-7 4l-2-1 1.3-1.2q15-14.7 23.7-33.8"/><path fill="#cdeaf2" d="m253 146 4 1-1.2 1.6c-12.2 16.3-17 34.7-20.8 54.4h-1a82 82 0 0 1 9.9-42l1-2q3.5-6.9 8.1-13"/><path fill="#151929" d="M260 467c1.5 3 .6 5.3 0 8.6l-.5 3.6-.5 2.8h-2l-.2 2.6c-1 4.1-2.6 6.8-4.8 10.4l-4-2-2 4h-3l1.2-1.7A57 57 0 0 0 254 468l4 2z"/><path fill="#0b0f1b" d="m290 411 6 1v2l3.4.1 4.5.2h2.2l5.9.7c2 3 2 3 2 6h-6.7l-3.8.1c-2.8 0-5-.3-7.5-1.1v-3h-2l-2 4h-2l-1 2c0-4.2 0-8 1-12"/><path fill="#64d6fa" d="M412 143c9 2.9 14 12.6 18.3 20.6 6.4 12.3 6.4 12.3 7.7 17.4l-1 3c-1.8-3-2-4.2-2-8h-2c-1.3-3-2-4.8-2-8l-4-1v-3l-2 1-.2-1.8c-.9-5.6-.9-5.6-4.8-9.5l-3-1.7c-1.4-2.2-1.4-2.2-2-4l-3 8-6-8 2-2h4z"/><path fill="#212631" d="m30 502 2.8 2.7c4.7 4.1 10.3 6.1 16.2 8.3l-1 2h-2l1 3c-1.7 1.1-1.7 1.1-4 2-2.4-.8-2.4-.8-5-2.2l-2.6-1.3c-6.2-3.8-6.2-3.8-7-6.8l-.1-2.4-.2-2.4-.1-1.9z"/><path fill="#f6fafc" d="M331.3 345.7c6.5 5.5 6.5 5.5 7 9.6q0 3.4-.3 6.7l-1.2-1.7q-3.1-3.9-6.8-7.3l-1-1q-4.1-.4-8.2-.6c-2.7-.4-4.5-1-6.8-2.4 1.5-3.7 1.5-3.7 3.6-4.7 9-1 9-1 13.6 1.4"/><path fill="#2fb7f4" d="M320 297q3.6-.4 7.2-.3h2.1l11.4.2 11.3.1v4c-5.8 1.3-11.6 1.2-17.6 1.2h-9.7c-2.7-.2-4.4-.8-6.7-2.2z"/><path fill="#192139" d="M304 357h4v3.2l-.2 17.2c-.2 11.2 0 20.5 5.2 30.6l-2 1v-2h-2c-2.6-9-4.6-17.5-5-27l-2 1 .2-2q1-11 1.8-22"/><path fill="#96d8f2" d="M228 230c1.8 3.5 2.6 6.3 3.5 10 2.8 10 7.6 21 14.2 29 1.3 2 1.3 2 1 4.8l-.7 2.2-2 .4-2 .6-1 2c-1.2-4.7-1-9.2-1-14l-3-1v-4h-2l-.4-2.4-.6-2.6-2-1-.7-5.9c-.4-3-1-5.4-2.3-8.1l-4-1z"/><path fill="#30b0f2" d="M367 319v13c-12.6.3-12.6.3-16-2 .1-2.3.1-2.3 1-5 2.9-1.8 2.9-1.8 6.4-3.3l3.6-1.6c3-1.1 3-1.1 5-1.1"/><path fill="#1075c8" d="m427 260 3 1c-9.5 14.6-9.5 14.6-13 18-2.8.4-2.8.4-5 0l-.6 1.9c-2.1 3.2-4.8 3.2-8.4 4.1l-4 2-1-2q1.1-.7 2.2-1.7c14.5-10.5 14.5-10.5 26.8-23.3"/><path fill="#1d2a44" d="M445 202h1v15h3c1.2 2.3 1.2 3.8 1.2 6.4v2.3c-.2 2.6-1 4-2.2 6.3l-2 7-1 2c-2-2-2-2-4-5q.4-4.5 1-9l1.6-13 .4-3.6z"/><path fill="#858b96" d="M303 136c1.3 2.7 1.2 5 .8 8-1.4 3.4-4.2 4.8-7.4 6.6a55 55 0 0 0-8.4 6.4 25 25 0 0 1 0-12c4-3.6 8.2-5.8 13-8z"/><path fill="#3b4458" d="m73 76 2 3h3l1 9 3-4-1 9h-3l-2 13c-2.5-2-2.5-2-5-5-1-8.2.9-16.8 2-25"/><path fill="#1c93e0" d="M235 216c1.8 2.8 2.3 4 3 7 2 9.3 4.9 17.2 9.4 25.6q1.4 2.6 2.6 5.4l-1 3c-1.8 0-1.8 0-4-1a57 57 0 0 1-3.5-7.2l-1-2.2c-4-10-7.8-19.6-5.5-30.6"/><path fill="#e4f6f9" d="M289 118c-1.3 4-3 4.5-6.4 6.6A131 131 0 0 0 260 143l-3 3-3-1c26.5-29.8 26.5-29.8 35-27"/><path fill="#bcbec5" d="m269 352 1 2c.8 2 .8 2 2 3-.2 8.6-1.8 17.2-3 25.7l-2 13.3h-1v-6h-2l-1 2a284 284 0 0 1 4.3-29.8z"/><path fill="#303c54" d="m423 273 6 1 2-1-2 4h-2l-.3 2-.7 2-3 1-2 4c-1.6 1.6-1.6 1.6-3.4 3a30 30 0 0 0-6.6 7l-2-1 1-6-6 2c2.5-4.2 5.5-5.3 10-7 3.2-1.3 3.2-1.3 5-4l6-1-4-4z"/><path fill="#c7eef9" d="M308 289q3.8.8 7.6 1.9c17 4.2 35.9 3.7 52.4-1.9h5c-3 2.5-5.5 3.7-9.3 4.6l-2.8.8c-16.8 3.7-39 3.7-54.9-3.4z"/><path fill="#6bdbfa" d="M404.9 134.2c2.8 1 4.3 2.7 6.4 4.9l2 2.2 1.7 1.7c-2.8 3-4.9 4.4-9 5-4.2-2.8-7-6-10-10 6.7-4 6.7-4 8.9-3.8"/><path fill="#1c1f2a" d="m92 33 .4 2 .6 2 2 1 1 2-1.7.4A33 33 0 0 0 79 50l-3-3 3-4-2-1h2l2-4h3l.4-2 .6-2c2.5-1.2 4.3-1 7-1"/><path fill="#0d101c" d="m142 24 1 5q-10.6 4.6-22 4v-5l6-2 2.8-1.1c4.1-1.2 8-1 12.2-.9"/><path fill="#7cd6fa" d="M95 299c0 3.5-.4 3.8-2.7 6.2l-1.8 1.8-2 2a195 195 0 0 0-12.4 14c-3.1 4-6.3 7.1-10.2 10.3q-3.9 3.6-7.2 7.8-4 4.3-8.7 7.9v-3h2l.7-1.6c2.6-4.8 6-8.2 10.3-11.4l1-3h3v-2h2l1-3h2l.7-2.2c1.6-3.3 3.4-4.6 6.3-6.8l3-4 5-5 2.6-2.6z"/><path fill="#226bb0" d="m384 298 6 1c-16.8 13.6-43.7 13.8-64 13v-1a212 212 0 0 1 32-2v-2l2-.2q7.5-.7 15-1.8v-2l3-1v-2h6z"/><path fill="#1570c6" d="M412 279c2.1.4 2.1.4 4 1-4.4 4.8-9 8.6-14.2 12.4l-2 1.3a29 29 0 0 1-7.8 4.3l-1-3c1.3-2.4 1.3-2.4 3-5l2-4 5 1 1-3 2.8-.2c3.3-.5 3.3-.5 5.3-3z"/><path fill="#53c5f5" d="m170 349 2 1-6.4 6.5-1.8 1.9-1.8 1.8-1.6 1.6C159 363 159 363 157 363v-2l2-1 1-3c2.4-2.7 2.4-2.7 5-5h3v-2zm-15 14 2 1a551 551 0 0 1-20 21.1l-2.2 2.3-2 2.1-2 1.9a22 22 0 0 1-5.8 3.6l1-3h2l.8-2.3c1.2-2.6 2-4 4.2-5.7h3l.7-1.7c1.6-2.9 3.7-4.2 6.3-6.3q2.8-3 5.4-6.4l1.6-1.6h2l1-2c1-2 1-2 2-3"/><path fill="#243044" d="m299 44-1 3-2.3-.5c-5.2-.7-10.3-.6-15.6-.6H277l-7.9.1v-3l-3-1c24.7-2.9 24.7-2.9 33 2"/><path fill="#1b62a6" d="M368 316v5l-1-2-1.5.8A32 32 0 0 1 342 323l-1 2v-6l3-.4 4-.5 2-.3 9.8-1.4a48 48 0 0 1 8.2-.4"/><path fill="#7b8594" d="M274 242h2l1 1.8 1.3 2.3 1.3 2.5c1.5 2.6 1.5 2.6 3.8 5.5 2 3.7 1.6 5.8.6 9.9-10-8-10-8-12-13q.4-4.6 2-9"/><path fill="#c4c7d1" d="m285 14 9-.2 2.5-.2c6.7 0 12 1.3 17 5.7 3.4 3.6 4.2 6.9 4.5 11.7-3-1-3-1-5.2-4.3-2.9-4.3-6.2-5.8-10.8-7.7l-3.4-1.7c-4.5-1.6-8.8-2-13.6-2.3z"/><path fill="#202c42" d="m351 426 3 1h-2l-.6 10.2-.1 2.9-.2 2.8-.1 2.6c0 2.6 0 2.6.6 5.2.4 2.3.4 2.3-.6 4.3h4l2 5c-4.8-1.1-7-3.9-9.8-7.7-2-3.6-2.2-7.2-2.2-11.3h1l2-7h2z"/><path fill="#b4bbc6" d="m136 460-3 1-1 3c-1.8.5-1.8.5-4 .8-6.8 1.3-11.3 5.4-16 10.2-.7-1.7-.7-1.7-1-4q3.1-5.9 8.6-10c5.4-1.6 10.8-1.2 16.4-1"/><path fill="#192a47" d="m424 188 2 1 .2 7.3v2.1c.1 5.1.1 5.1-1.6 7.6-1.6 1-1.6 1-3.6 1l-1 6h-1c-1.6-12.9-1.6-12.9-1-18l2-2 1-2c1-2 1-2 3-3"/><path fill="#4accf8" d="M311 367h1v5h2v-3h6c1 3 1 3 0 6l3.8-.5q3.6-.5 7.2-.5l1 3c-3 1.8-4.8 2.2-8.3 1.7l-2.4-.4-2.3-.3-3.9-.2c-3.1-.8-3.1-.8-5.2-3-.9-2.8-.9-2.8 0-5.6z"/><path fill="#172339" d="M330.1 286.9h12.1l7.8.1-2 1.4-2 1.6v1l7 1c-3 2-3.6 2.2-7 2.2h-4.7l-2.4-.1-5.9-.1 2-1v-2l-3 1c-2.7-2-2.7-2-5-4 1-1 1-1 3.1-1.1"/><path fill="#193a5e" d="m305 125 2 1-3 4h-2v2h-4v3l5 1-3 2-5-3v-2l-4 3 1 2q-2.9 1.6-6 2.5c-2.3.5-2.3.5-5 2.5l-3-1c7.8-7.3 17-13.3 27-17"/><path fill="#636f82" d="M397 356c2.8-.1 2.8-.1 6 1a48 48 0 0 1 5.2 26v2.9A33 33 0 0 1 406 400c-1.1-3.4-.7-4.5 0-8l.2-8v-2.3q-.1-9.5-2.2-18.7h-2v4h-4l-1.6-3.8-1-2.2q0-1-.4-2z"/><path fill="#85cde2" d="M60 240h1a40 40 0 0 1-1 21v3.1c0 2.9 0 2.9-1 5.3-1.1 2.9-1 5.3-1 8.4 0 3.3-.8 6.3-1.5 9.5a88 88 0 0 0-1.2 11.4C55 301 55 301 53 303q-.3-10.8 1.3-21.4l.4-2.9 3.3-23.4z"/><path fill="#131c2f" d="M370 421h15l-1 3h-4l-1.3 1.5c-2.7 2.4-5.4 1.8-9 1.8l-4-.1q-4.8-.3-9.7-1.2l2-1 1-3 11 1z"/><path fill="#484e60" d="M62 157h1v5l3-1c1 1 1 1 1.2 4.4 0 5-1 9.8-2.2 14.6h-4l-1 5h-1a97 97 0 0 1 1.5-18.5l.4-2.8zm-1 19 1 2Z"/><path fill="#b7bbc6" d="M252 461h1c.7 14.3.3 25-9.4 36.5A34 34 0 0 1 232 506l-3-1 2-1c9.8-5.3 13.9-12 17.1-22.5q2.4-10.2 3.9-20.5"/><path fill="#181a28" d="m281 304 5 2c.2 9.4.2 9.4-1 14l-3 1c-1.2 1.6-1.2 1.6-2.2 3.6L278 328a15 15 0 0 1-.2-8.8l.5-2.7.6-2.7.6-2.9z"/><path fill="#2dadf0" d="m384 283-1 7 3 1c-4.1 3.2-6.6 5-12 5v-2c-2-1.1-2-1.1-4-1l-4-1 5-2v-2l5.4-2.5 3-1.4c2.6-1.1 2.6-1.1 4.6-1.1"/><path fill="#113655" d="M248 412h1l.1 10.2v2.9l.1 2.8v2.6c-.2 2.8-1 5-2.2 7.5h-4l-.9 1.8C241 442 241 442 239 445c-2.2.5-2.2.5-4.6.7l-2.5.2-1.9.1c3-2 3-2 5.9-3 5.2-3.3 7.2-7.4 8.7-13.4q2-8.7 3.4-17.6"/><path fill="#bdc0c8" d="m44 271 2 1a128 128 0 0 1-1.4 21.5l-.4 3-.3 2.8-.4 2.6C43 304 43 304 41 306c-3-5.9-.8-14.4-.1-20.7l.2-2.2c.5-4.3 1.4-8 2.9-12.1"/><path fill="#54bae7" d="M36 416h1l.1 1.8c.5 5.9 1.7 9.4 5.3 14 1.6 1.5 1.6 1.5 3.8.9l1.8-.7 2 3c3 .3 3 .3 4.6-1.5l1.6-2 1.6-2L59 428c0 3 0 3-2 6l-1 3 8 1v1c-17 1-17 1-22.5-3.4a20 20 0 0 1-5.7-15.1q0-2.2.2-4.5m24 9 2 1-2 2z"/><path fill="#c2c7ce" d="m68 88 1 2c.8 2 .8 2 2 3-.2 10.4-1.6 20.7-3 31h-1l-1-7-1 5h-1c-.3-7.3.8-14.3 2-21.5l.6-3.6z"/><path fill="#8ee2f6" d="m316 112-2.4.8-3 1-3.1 1.1c-2.6.8-2.6.8-3.5 3.1l2 1c-2.9 2-3.9 2.3-7.2 2.6l-3.8.4v-2l-2.4 1.5C290 123 290 123 288 123l-1 3-5-1c5.9-6.4 25.3-16.6 34-13"/><path fill="#61626b" d="M277 5c29.3-.9 29.3-.9 41 4l2 2-2.7-.4-3.3.4c-2.4 2.9-2.4 2.9-4 6l-6-2 1-3h2V9h-2V7l-28-1z"/><path fill="#d0d5dc" d="M228 19c-2.4 3-3.8 4-7.6 4.8l-4.2.4-2 .3q-7.1.7-14.2.5l-1-3c9.7-2.3 19-3.2 29-3"/><path fill="#2e3e54" d="M384 338c4.8.4 6.9 2.4 10 6l1 3 3 1q2.4 3.3 4 7l-1 2h-4l-1 2h-2c-1.2-6.6-1.2-6.6 1-10l-2-1-1-3-2 1v-3l-4 3c-1.8-3-2-4.2-2-8"/><path fill="#0c1b2f" d="M326.1 379h5.9l-1 2h-3l.3 3.4.3 4.5.2 2.2q.2 3 .2 5.9l-2 2a34 34 0 0 1-4.3-13.7c-.9-2.9-2.2-3.7-4.7-5.3 2.8-1.4 5-1.1 8.1-1"/><path fill="#27334e" d="m430 148 3 3 1.6 1.6c3.1 3.3 4.3 4.7 4.8 9.3l-.4 3.1c-2.2 0-2.2 0-5-1q-2.4-3.4-4.3-7l-1.1-2-2.6-5z"/><path fill="#cbe8f2" d="M353 130c6.2.5 11.3 2.5 17 5l-1 4c-5.9 2.4-5.9 2.4-9 1.2l-5-3.2v-5z"/><path fill="#71c1e2" d="m44 373 2 2-2 1zm-2 1c2.5 3.8 2.4 7.6 2 12q-.6 3-1.5 5.8-.9 4.5-1.5 9.2l-.3 2-.8 6-.2 2-.7 5h-2c-.3-7.2.7-14.1 1.7-21.2l.8-6.2c1.5-11 1.5-11 2.5-14.6"/><path fill="#34425c" d="M449 228h1c-.5 8.1-3.3 15.4-6 23-1-3-1-3-1-4h-4c-1.2-6.4-1.2-6.4 0-9.4l1-1.6c3.9 1.9 3.9 1.9 5 3l.9-3.8a18 18 0 0 1 3.1-7.2"/><path fill="#1a2c49" d="M40 372h1q.6 10.5-1.4 20.8l-.4 2.1Q38 401.6 36 408h-1c-.5-7.4.3-14.6 1.4-22l.4-2.7q0-1.4.3-2.7l.4-2.4q.8-3.3 2.5-6.2"/><path fill="#36baf9" d="M286 283c4.8.9 4.8.9 7 2v2l3.1.9 9.9 3.1-1 2h-2v2c-5.8-.5-10-2.2-15-5v-4h-3z"/><path fill="#cacfd6" d="M289 146v10l5-4c.2 2.3.2 2.3 0 5l-3 3c-1.9 5-1.9 5-1 10-1.3 2.2-1.3 2.2-3 4h-2l.2-2q1.2-11 .8-22h-3c3.8-4 3.8-4 6-4"/><path fill="#a5a9b1" d="m312 264 7 2-2 16h-1v-5l-2.9-.4c-3.1-.6-3.1-.6-5.1-2.6h2z"/><path fill="#b3b7be" d="M33 344c3.6 6.2 3 12.3 2.2 19.1l-.3 2.4c-.4 4-1 7-2.9 10.5l-1-3-2 3q1.4-16 4-32"/><path fill="#b9c3cc" d="M293 200h1v10h2a220 220 0 0 1-4 24l-3-2q1.4-16 4-32"/><path fill="#1b84d3" d="M249 256c3.7 1.2 4.7 2.8 7 5.9l2.2 2.7 3.8 5.4-4 3-.2-1.9-.8-2.1-2.3-.8c-3.3-1.5-4.2-2.9-6-5.8l-1.6-2.5-1.1-1.9z"/><path fill="#64778b" d="m288 172 2 1-1 1-.8 5.1-.4 3.2L286 197l-4-2-1 3 1.4-11.8.4-4 .4-4c.8-3.2.8-3.2 2.9-5.1z"/><path fill="#24304a" d="m405 121 3 1v2l2 .3 2 .7 1 3c2 1.2 2 1.2 4 2l-1 7c-10-7.3-10-7.3-14-11v-2h2z"/><path fill="#2181cb" d="m353 344-1.5 1.3c-6.2 6-7 12.2-7.5 20.7h-1l-.1-2.4-.2-3.3-.2-3.2c-.5-3.3-1.8-5.2-3.5-8.1l1-3c2.2-1 2.2-1 4.9-1.7l2.7-.8c2.4-.5 2.4-.5 5.4.5"/><path fill="#15233b" d="m372 336 1 2c-6 4-13 3.1-20 3v-4a36 36 0 0 1 19-1"/><path fill="#122440" d="M395 299v3h-2l-2 5h-4l-1 3-3-1-1-2c-2.5-.7-2.5-.7-5-1 4.8-4.1 11.6-7.8 18-7"/><path fill="#1d2f49" d="m59 221 3 1q.4 9.3-.9 18.5l-.2 2.1c-.7 5.2-.7 5.2-2.9 7.4l-2-1z"/><path fill="#c7eaf5" d="M287 149v14h-3c-2.2 2-2.2 2-4 4l2-9h-4a10 10 0 0 1 4-7c3.6-2 3.6-2 5-2"/><path fill="#4fbee4" d="M319.7 117.9h7.5l27.8.1v1l-3 .1-16.3.8c-12.1.5-12.1.5-23.8 3.5-2.7.9-5.1.8-7.9.6 1-2 1-2 3.2-2.8l2.8-.8z"/><path fill="#c4c6cf" d="M255 442h3c1.3 3.7.8 6.5 0 10.2l-.6 3.7-.7 3.7-.7 3.8c-1.7 9.3-1.7 9.3-4 11.6.5-11.1 1.2-22 3-33"/><path fill="#159ee9" d="M322 389h1l2 18 3 1c-3.6 1.2-6.3.7-10 0l-1-8 3-1z"/><path fill="#cfd3da" d="M65 115c2.5 2.5 2.3 3.2 2.3 6.6-.1 7.9-1.8 15.6-3.3 23.4-2-2-2-2-2.2-4.3C62 124 62 124 64 122z"/><path fill="#9a9fab" d="m323 22 6 4.3c2 1.8 3.6 3.3 5 5.7-.3 3.3-.3 3.3-1 6l-3 1-1 6h-1l-.6-3.3-.8-4.3-.4-2.1Q325 28.6 323 22"/><path fill="#16243f" d="M397 406h3l1 3c-3.7 3-3.7 3-6 3zm-2.6 5.8 1.6 1.2v2h-2v4l-9 1 2-1-1-5c5.4-3.2 5.4-3.2 8.4-2.2"/><path fill="#133f62" d="M257 377c.7 10.2-3 19.8-7 29-1.7-5.1-.2-9.9.8-15l.5-3.1.5-3 .5-2.6c.7-2.2 2-5.3 4.7-5.3"/><path fill="#304b64" d="m309 344 2 3-1 1.8c-1.3 2.3-1.3 2.3 0 5.2l-.1 4.7-.2 2.7-.1 2.8-.2 2.8-.4 7h-1v-17l-3 1-1 12h-1c-.5-8.8-.4-16.2 4-24z"/><path fill="#1476c1" d="M382 428h1l.3 8.7v2.5c.1 4 0 6.2-2 9.8-3.4 3-6 3.2-10.3 4 0-3 0-3 1.5-4.7l1.5-1.3h-5v-1l1.9-.4 2.4-.5 2.4-.5c2.6-.5 2.6-.5 5.3-2.6.6-3.3.6-3.3.7-7.1l.2-4z"/><path fill="#313b52" d="M370 102c8.8 2.8 8.8 2.8 12 6a23 23 0 0 1-16 1c-1.8-1.6-1.8-1.6-3-3 2.6-1.5 3.9-2 7-2z"/><path fill="#138dd1" d="M205 442h3l2 2q5 .4 10-1v2h10v1q-26 .3-52-1v-1h27z"/><path fill="#cbeffa" d="m241 147 2 1c-.6 4.9-2.7 8.6-5 12.8l-1.2 2.1-2.8 5.1c-1-3-1-3 0-6l-3-3c1-3.3 1.8-4 4.4-6 2.5-2 3.8-3.3 5.6-6"/><path fill="#202a46" d="m312 100 1 3 1-1h5l-1 2 2 2a44 44 0 0 1-19 1v-3c3.5-2 7.1-3 11-4"/><path fill="#38bceb" d="M396 362c4.1 6.2 4.3 12.8 4.1 20v2.3l-.1 5.7h-1l-1-6-5 1 1-2 2 1z"/><path fill="#acb1bd" d="m289 251 5 2c0 4.2 0 8-1 12l-4-2v-2h-2v6l-3-2 1-7 1 2h2z"/><path fill="#c4c7d0" d="M71 65c3.7 6.2 3 12.6 2 19.4l-.2 2.3L72 92h-3q-.3-13.7 2-27"/><path fill="#151824" d="m30 502 1.4 1.2q4.6 4.1 9.6 7.8h-2v2c-4 1.2-6.2.8-10-1l-1-9z"/><path fill="#10203c" d="M317 416a48 48 0 0 1 12 5c1.4 3.2 1.4 3.2 2 6l-7-1v-2h-2v-2l-3 1c-2.2-1.4-2.2-1.4-4-3 1-3 1-3 2-4"/><path fill="#b7bcc4" d="M46 248h1v7h2l1-3-.9 8.8-.2 2.4-.3 2.5-.2 2.2c-.4 2.3-1.3 4-2.4 6.1l-1-2-2 2 1-9.6.2-2.8q.7-6.7 1.8-13.6"/><path fill="#153559" d="M421 233h2c-.6 4.8-2.6 8.6-4.7 12.9l-1 2q-3.6 7-8.3 13.1h-1l-1-6 2-1 2 1-.6-2.3c-.4-2.7-.4-2.7 1.6-5.7l2 1 1-3 1.5-1.4c2-2 2.1-3.8 2.5-6.6h2z"/><path fill="#bec4c9" d="M39 300c2.7 3.3 4.2 5.8 3.8 10.1q0 1.1-.4 2.2l-.4 2.4-.4 2.6-.5 2.5L40 326c-2.9-2.9-2.8-6-3-10a89 89 0 0 1 1-8.5l.2-2.2z"/><path fill="#21304d" d="m387 141 4.3.4 2.4.2c2.3.4 2.3.4 5.3 2.4l-1 6c-3.7.3-5.6.2-8.9-1.7-2.1-2.3-2.1-2.3-2.4-5q0-1.2.3-2.3"/><path fill="#204360" d="M266 292h1v12h2l-1 13-2-2-1 5h-2a97 97 0 0 1 1.5-18.5l.4-2.8z"/><path fill="#878c9d" d="m26 496 3.5.9q10.6 2 21.6 3.2L66 502v2c-13.6-.8-27-2-40-6z"/><path fill="#2e3851" d="m436 256 3 1c.5 4.7-1 7-3.5 10.8l-2 3-1.5 2.2-4-5c1.8-1.6 1.8-1.6 4-3l3 1v-3l-3 1c0-4 0-4 2-6.2z"/><path fill="#d3f1fc" d="M275 176c1.6 6.2 3 12 0 18l-2 6h-2v-5.4l-.1-3.1c.1-2.5.1-2.5 1.1-3.5.2-3.6.2-3.6-1-7l1.4-1.4c1.7-1.5 1.7-1.5 2.6-3.6"/><path fill="#63d4ed" d="M384 347c5.7 3.1 9.2 7.1 12 13a41 41 0 0 1 0 11q-1.6-3-2.8-6a37 37 0 0 0-9-13.3L383 350z"/><path fill="#afb4be" d="M312 77h1v5h2c.3 6.2-.8 12-2 18l-4 1 1-8 .2-2.3z"/><path fill="#c0c4ce" d="M317 54h1c.5 9.7-1 18.6-3 28h-2c-.4-9-.6-20 4-28"/><path fill="#40b5f1" d="M284 279q5.3 2 9.9 5 5.8 3.5 12.1 6v1c-3.8.2-6.5-.3-10-2l-1-2h-2v-2l-7-1 3 2-1 3-8-4z"/><path fill="#202e4a" d="M438 156c2.7 2.4 4 4.6 5 8v4h-3v3h2l-1 5h-2l-2-4.4-1.1-2.4c-.9-2.2-.9-2.2-.9-4.2l3-2c.3-3.6.3-3.6 0-7"/><path fill="#1c79bb" d="M324 399c2.2 2.2 3 4 4.3 6.8 2 4.2 4.2 7.1 7.7 10.2l4 4v2a33 33 0 0 1-15-2c3.8-1.4 7-.7 11 0l-1-3c-1.9-.6-1.9-.6-4-1l-3-2-1-6-2-1q-.7-4-1-8"/><path fill="#19253b" d="M370 313c3 2 3 2 4 5v11h-3l-2 4v-11.4l-.1-2.5V317c.1-1.9.1-1.9 1.1-3.9"/><path fill="#9ad4ec" d="M228 230c1.8 3.7 2.8 6.8 3.9 10.8A71 71 0 0 0 238 256v2h-3l-1-3-2-1-.7-5.9c-.4-3-1-5.4-2.3-8.1l-4-1z"/><path fill="#0d3656" d="m38 431 1.7 1.3 2.2 1.6 2.2 1.7c2.8 2 4.5 2.5 8 2.7l2.5.1 2.8.1 2.8.2L90 440v1q-23.5.3-47-1v-3l-2-.7c-2-1.3-2-1.3-2.6-3.4z"/><path fill="#142e4b" d="M383 343h2l1 2 4-2 3 2v3l3 1-2 3-1 3-2-2.2q-4.6-4.3-10-7.8z"/><path fill="#1d415f" d="M49 318c1.3 4.3.6 8.1 0 12.5l-.3 2.5-3.7 26h-1v-29l2 2 .4-2.3.5-3 .6-3c.5-2.7.5-2.7 1.5-5.7"/><path fill="#384153" d="M339 324h1l.7 5.8.4 3.3c-.1 2.9-.1 2.9-1.3 4.7-4.5 3-9.5 2.2-14.6 1.8l-7.2-.6v-1h16l.3-4.3c.3-3.8.9-5.2 3.7-7.7z"/><path fill="#142848" d="m278 293 16.5 8.3q5.6 3 11.5 4.7v1c-3.5.2-5.5.3-8.5-1.6-3.2-1.8-5-1.3-8.5-.4l-1-3h-2v-2l-1.9-.2c-2.1-.8-2.1-.8-3.4-2.9l-.7-1.9h-2z"/><path fill="#283750" d="m394 264 3 2c-4.8 3.9-4.8 3.9-7.2 5.4-2.2 2-2.9 3.8-3.8 6.6q-6 1-12 1 4.5-3.5 9.4-6.4c4.1-2.5 7.4-5 10.6-8.6"/><path fill="#75d6f5" d="m280 125 2 1-2 5h4l-2 4h-3l-1-2-3-1-1 5h-2v-2l-6 2c4.3-4.5 9-8.2 14-12"/><path fill="#cacdd4" d="M31 366h1c.4 19.5.4 19.5-2 28h-2c-.4-9.8.8-18.5 3-28"/><path fill="#32a7ea" d="M366 293v2l-3.2.9c-2.9.8-5.2 1.7-7.8 3.1l3 2c-6 2.7-12 2.2-18.4 2.1h-3.4l-8.2-.1v-1l24-1v-5h6v-2c2.9-.8 4.9-1 8-1"/><path fill="#c0c5cb" d="M49 233c2.4 3.5 2.3 5.1 2.3 9.3v3.4A32 32 0 0 1 49 255h-2l-.1-7-.1-4c.2-4.1 1-7.1 2.2-11"/><path fill="#3b4457" d="m393 420-1.5 1.1c-2 2.6-1.8 4.4-1.8 7.7v3.4l.1 3.5v3.6l.2 8.7h-1l-1-12h-2v5h-1v-12l3-1-1-8c3-1 3-1 6 0"/><path fill="#36aae2" d="m417 247 2 2c-.3 3.9-2.6 6-5 9l-3 6-3-1v6h-2v-2h-2v2l-2-1 1.8-2q7.5-8.8 13.2-19"/><path fill="#303c57" d="M397 114c4.1 1.5 7.4 3.5 11 6l-1 2h-2l-3 3-6-3v-5h2z"/><path fill="#bac0c8" d="M98 39v3l3 1-2 .6-2.8.8-2.7.7c-2.7.9-2.7.9-5.5 2.9-2.2-.4-2.2-.4-4-1v-3c4.7-2.8 8.4-5 14-5"/><path fill="#202d43" d="M253 396c1.7 5.2.4 10.3-.3 15.6l-.4 3.2-.4 3.1-.4 2.8c-.5 2.3-.5 2.3-2.5 4.3-.8-20.7-.8-20.7 4-29"/><path fill="#0e89da" d="M326 409h2l1 5h3v2l3 1c1.2 2 1.2 2 2 4-4.7-.5-8.7-1-13-3q.9-4.5 2-9"/><path fill="#3dbdf3" d="m269 264 3.4 2.8 2 1.6c1.6 1.6 1.6 1.6 2.6 4.6l1.9 1c2.5 1.2 3.5 2.7 5.1 5l-3 3c-2.4-.8-2.4-.8-5-2-1-3-1-5-1-8l-2-1v-2l-4-1z"/><path fill="#c1e3ed" d="M254 235q3.4 4.4 5.6 9.5c3 6 6.5 10.9 10.6 16 1.8 2.5 1.8 2.5 1.8 5.5a65 65 0 0 1-18-27z"/><path fill="#b2d0dd" d="M373 289c-10.8 9-27 7-40 6v-1l11.9-.8 3.3-.2c6.2-.5 11.7-1.3 17.6-3.4a22 22 0 0 1 7.2-.6"/><path fill="#13476a" d="m270 149 2 1-1 2.9c-1.1 2.9-1.1 2.9-1 5.1l-2.4 1.4c-2.9 1.4-2.9 1.4-3.6 4.6l-2 1q-1.5 3.7-2.9 7.7C258 175 258 175 255 177c2.9-10.5 9-19 15-28"/><path fill="#0d101e" d="m16 485 1 3 3-1 5 7-3 3c-2.6-.2-2.6-.2-5-1-2-4-2-6.7-1-11"/><path fill="#142640" d="M244 261h3c2.1 2.9 3 4.4 3 8l5 2v5h-3v-3l-6-2z"/><path fill="#e9eaee" d="M303 145h2l-1.1 12.4c-.2 2.1-.2 2.1-.9 5.6-2 1.5-2 1.5-4 2-1.5-4.3-.5-6.9 1.2-11q1.7-4.4 2.8-9"/><path fill="#60c3e9" d="M265 137c.8 1.8.8 1.8 1 4-2 2.5-4.3 4.2-6.9 6.2-3.4 2.8-5.3 6-7.4 10q-.6.8-1 1.8a47 47 0 0 0-3.7 8h-2c3-9.6 8.5-19.2 16-26h2z"/><path fill="#0b3e65" d="M352 120v1h-2.8l-21 .7h-3.8q-4.3.3-8.4 1.3v2h-9c12.3-8.2 31-7.2 45-5"/><path fill="#0e111e" d="m16 493 2 2c2.5.8 4.3 1 7 1l4 3-1 3c-3.1 1-3.1 1-7 1q-3.8-2.8-6-7z"/><path fill="#27b1f5" d="m386 401 2 1c-1.2 3.7-2.8 4.3-6.1 6.1a33 33 0 0 1-24 0c-4.7-1.8-4.7-1.8-5.9-4.1l3-1 2 1v2c9 2.6 15.5 3 24-1h3z"/><path fill="#233651" d="M412 237c3 4 3 4 3 8l-1 4-2-1-3 4-4-1z"/><path fill="#63cef1" d="m424 157 1 2 2 .9c2.4 1.3 3 2.3 4.1 4.8l1 2.2 1 2.3 1.2 2.3c1.9 4.2 3.2 8 3.7 12.5-2.6-3-3-3.7-3-8h-2c-1.3-3-2-4.8-2-8l-4-1v-3l-2 1z"/><path fill="#1b3552" d="m277 143 2 3 3 1 1-3 4 3c-3.8 3.6-3.8 3.6-6 5-2.9-.2-2.9-.2-5-1v-2l-4-1z"/><path fill="#0b1221" d="M137 490c-.3 2-.3 2-1 4a21 21 0 0 1-7.4 1.2h-2.3c-2.5-.2-4.1-1-6.3-2.2l1-2c2.3-.4 2.3-.4 5.3-.6l2.8-.3z"/><path fill="#8cddf3" d="m313 348 2.2 1c2.9 1 5.1 1.2 8.2 1.3 5.6.4 8 1.6 11.6 5.7.9 2.3.9 2.3 1 4a16 16 0 0 1-7-6 33 33 0 0 0-18 0c.9-4.9.9-4.9 2-6"/><path fill="#157ecb" d="m427 260 3 1-3.2 5.4-1.8 3.1c-2 2.5-2 2.5-4.6 3.3l-2.4.2-5 2q5.1-6.3 11-12l1.8-1.8z"/><path fill="#2a95c5" d="M344 119c21.7-.9 21.7-.9 28.3 5.1l1.7 1.9-2 1-4.6-1.7c-7.5-3-15.4-4-23.4-5.3z"/><path fill="#102240" d="M351 431h1l.1 2.4c.5 8 1.8 13.3 6.9 19.6-3 1.3-4.8 2-8 2v-2.4c.2-2.6.2-2.6-1-4.6a218 218 0 0 1 1-17"/><path fill="#0e2746" d="M338 346c2 1 2 1 3.1 3a33 33 0 0 1 1.1 10.6v3.9c-.2 3.2-.5 4.9-2.2 7.5h-2l.5-9.4c.2-3.7.4-5.5 2.5-8.6l-3-1z"/><path fill="#1e5f99" d="M361 309v1c-7.8 2-15.1 2.2-23.1 2.1h-3.5l-8.4-.1v-1q17.4-2.3 35-2"/><path fill="#5bc5ec" d="M264 303c1.2 3.5.8 5.4.3 9l-.5 3.7-.6 3.7-.6 3.8c-1.5 10.1-1.5 10.1-3.6 13.8-.3-8.1.4-16.2 3-24l-2-1h2v-8z"/><path fill="#8ed9ee" d="M271 237c1.5 1.1 1.5 1.1 3 3 0 2.7 0 2.7-.3 5.7l-.4 3q0 1.2-.3 2.3c-3.3-3-5.2-5.9-7-10v-2l2-.4c2-.4 2-.4 3-1.6"/><path fill="#c4c9d0" d="m61 140 2 3 2-1q-1 9-3 18h-2v-10q-.3-5 1-10"/><path fill="#61d8fc" d="m293 130-10 6-2.7 1.7c-2.3 1.3-2.3 1.3-4.6 1l-1.7-.7 1-6 4 1v2h3l1-3c6.3-3.2 6.3-3.2 10-2"/><path fill="#21354d" d="m274.2 118.3 1.8.7c-1.9 3.9-1.9 3.9-3 5l-1.2 2.6-1.8 2.4c-2.7.3-2.7.3-5 0-.4-2.1-.4-2.1 0-5 5.2-6.3 5.2-6.3 9.2-5.7"/><path fill="#c6c8d1" d="M260 422h1c.4 8-1.1 15.2-3 23-2-2-2-2-2-4.9l.3-3.5.2-3.4c.5-3 1-4.7 2.5-7.2z"/><path fill="#18233b" d="m426 277-1 3h-6l-1 3q-3.3 2.4-7 4l-2-1 1.5-1.4 1.9-2c1-.8 1-.8 1.9-1.8 1.9-1.9 1.9-1.9 3.7-4.8 3.8-1.3 4.5-1.3 8 1"/><path fill="#33b5e4" d="m329 373 3 3c-1.4 1.6-1.4 1.6-4 3-4.8.1-8.8-.7-13-3v-2h6.4l3.7.1c2.8.2 2.8.2 3.9-1.1"/><path fill="#7ed9f1" d="M377 352c6 2 9.5 9.8 12.4 15.3 1.3 2.9 2.2 5.5 2.6 8.7-3.3-2.6-4.4-5-5.7-8.8-2.1-5.7-5.5-8.7-10.3-12.2z"/><path fill="#0c3262" d="M239 243c2.8 2.8 4.1 6 5.8 9.6q4.4 8.8 9.2 17.4c-1.9-.2-1.9-.2-4-1-1.2-1.8-1.2-1.8-2.1-4-1.2-3.2-1.2-3.2-3.9-5-.9-1.7-.9-1.7-1.6-3.9l-.8-2c-.6-2.1-.6-2.1-.6-5.1l-3-1z"/><path fill="#0c3f63" d="M398 367h3l.1 22.5v3.6c-.1 2.9-.1 2.9-1.1 4.9h-2v5h-2l.7-2.2A75 75 0 0 0 398 367"/><path fill="#131d30" d="m330 313-1 4 4 1-7.6-.4h-2.2c-4.4-.3-8-1-12.2-2.6v-1h4.3l2.4.1c4.2-.2 8-1.2 12.3-1.1"/><path fill="#c6f0fe" d="M269 217c2.9 1.5 3 3.3 4 6.3l1.1 3c1.5 4.4 2 7 .9 11.7-3.5-2.7-3.9-5.7-4.7-10l-.7-3.7c-.6-3.3-.6-3.3-.6-7.3"/><path fill="#173b5d" d="M417 168c4.7 4 6.4 10.3 8 16 .1 3-.3 5-1 8h-1l-.4-2q-1.4-7.5-3.6-15h-2v-2h-2l-1 2-1-3z"/><path fill="#3b5471" d="m374 314 2 1-.2 9.4c0 2 0 2-.8 5.6-2.6 2-2.6 2-5 3v-6l4 2zm-6 11h1l1 10q-7.4 1.1-15 1v-1l13-1z"/><path fill="#737a85" d="M312 133v8l-6 3v-8l-2-1c5.8-2 5.8-2 8-2"/><path fill="#052c4e" d="M306 379h1l.1 3c.5 9.3 1.5 17.6 5.9 26l-2 1v-2h-2c-2.8-9-5-17.4-4-27z"/><path fill="#142c49" d="m316 340 1 3 3 2-2.2.6c-3.7 1.9-5.3 4.1-7.8 7.4l-2-4 2-3 .4-2c.9-3 2.6-4 5.6-4"/><path fill="#7dcae6" d="M56 269h1c1 6.5 1 12-.5 18.4q-1 5.6-1.2 11.4C55 301 55 301 53 303q-.2-11.7 1.5-23.2l.4-3.2z"/><path fill="#b5e9f8" d="M225 196h1l1 31h-1v-6l-8 7-2-1 1.5-1.5 2-1.9 1.9-1.9c2.7-2.8 2.8-4.9 3-8.7v-3l.2-3.1v-3.2z"/><path fill="#daf6fa" d="m330 350 2 .4c2 .6 2 .6 6 2.6v9l-1.2-1.7q-3.1-3.9-6.8-7.3l-1-1-5.6-.6-3-.2-2.4-.2v-1c8.5-1.3 8.5-1.3 12 0"/><path fill="#19293c" d="M285 41c5.6-.7 9.1.6 14 3l-1 3q-7.5-1.3-15-3z"/><path fill="#3a3b45" d="M330 18c4 1 5.8 2.6 8 6l-6-2 2 3c-2.2 1.2-2.2 1.2-5 2-2.3-1.4-2.3-1.4-4-3 1.4-3.2 2-4 5-6"/><path fill="#0d101c" d="M314 17h6l1 2 3-2 1 3 2 1-3 2c-2.7-.9-2.7-.9-5-2v2l-3 1c-1.6-1.8-1.6-1.8-3-4zm13 1 3 1-3 1z"/><path fill="#4b5263" d="m396 299 5 1 1 2c-10.4 6.5-10.4 6.5-16 8l1-3h4l2-5h2z"/><path fill="#c7cdd4" d="M345 104v1l-18 1-1 2c-2.3.4-2.3.4-5 .6l-2.8.3-2.2.1-2-3c10.3-2.3 20.5-2.2 31-2"/><path fill="#4ac6f2" d="M338 368c-1.2 3.3-2.2 5.8-5 8h-2l-2-2-1 1h-8l3-1 1-2v2l2.9-1.5c3.1-1.5 3.1-1.5 5.1-1.5v-2c3-1 3-1 6-1"/><path fill="#072341" d="m314 309 2 .4a124 124 0 0 0 29.3 1.7l9.7-.1c-4.8 3.2-10.4 2.3-16 2.3h-14.4c-4.2-.4-6.9-1.5-10.6-3.3z"/><path fill="#ace7fb" d="m173 216 1 3c-12.5 13.6-12.5 13.6-19 20l-2-2 1.4-1.2 2-1.6 1.8-1.6c3.4-3 3.4-3 5.8-6.7 1-1.9 1-1.9 4-2.9 1.4-1.6 1.4-1.6 2.7-3.6l1.3-1.9z"/><path fill="#b6b9c1" d="M59 152h1v8h2l-1 11-4 1z"/><path fill="#e1e9e9" d="m328 344 2 2-10.8 3.2c-3.2.8-3.2.8-5.2-.2 1.5-3.7 1.5-3.7 3.6-4.7q5.2-.6 10.4-.3"/><path fill="#6ed1f4" d="M247 272c3.3 3 5.6 6.3 8 10l-2 1-6-6-1.4 1.5-2 2-1.8 1.9C240 284 240 284 237 285c0-2 0-2 1.4-3.6 1.6-1.4 1.6-1.4 3.6-1.4v-3l4-1z"/><path fill="#0d243f" d="M307 357h1l.1 8.7v2.5c.1 4.3.1 8-2.1 11.8-2.1.8-2.1.8-4 1-.4-5.5-.4-5.5 1.5-7.9l1.5-1.1 1 1z"/><path fill="#565c70" d="M384 338c4.8.4 6.9 2.4 10 6l1 3 3 1-1 2c-2-.8-2-.8-4-2l-1-3-2 1v-3l-4 3c-1.8-3-2-4.2-2-8"/><path fill="#7fd7f7" d="m150 297 2 1q-9.7 11.2-20 22l-2-1 5-6h2l.8-1.8c1.3-2.3 2.6-3.8 4.6-5.6a74 74 0 0 0 7.6-8.6"/><path fill="#263653" d="m57 248 2 2c0 3.3 0 3.3-.4 7.1l-.3 4-.3 2.9c-4-4.3-4-4.3-4.2-7.4l.3-2.3.3-2.3c.6-2 .6-2 2.6-4"/><path fill="#5bb0d3" d="M236 194h1a49 49 0 0 1-1.5 16q-1 5-1.5 10h-1v-22h2z"/><path fill="#1a2030" d="M139 506h18v1l-7 1v1a47 47 0 0 1-11.8 1H132v-1h9v-2z"/><path fill="#ccd1d7" d="M19 452c2 2 2 2 2.3 4q-.2 9.6-2.3 19h-1v-11.9l-.1-2.6v-2.3Q18 455 19 452"/><path fill="#151d31" d="m350 424-1 4.9-.5 2.7c-.5 2.4-.5 2.4-1.5 4.4v7c-2-2-2-2-2.2-5.7v-4.4l.1-2.3.1-5.6c2-1 2-1 5-1"/><path fill="#27a8e5" d="M235 216a17 17 0 0 1 3 7.3l.6 2.4 1.4 8.3-4-1c-2.2-6-2-10.7-1-17"/><path fill="#697585" d="M293 142c1.3 2.6.8 4 .3 7l-.4 2.6c-1 2.9-2.3 3.8-4.9 5.4l-.3-5.8-.2-3.3c.5-2.9.5-2.9 3-4.8z"/><path fill="#163456" d="m391 272 3 3q-4 4.3-9.2 7.3l-2.8 1.5-2 1.2-2-3c1-1 1-1 4-1h3l.8-2.4c1.4-3 2.2-3.5 5.2-4.6z"/><path fill="#a4b1c2" d="M276 232c2.3 2.7 3.9 4.6 5 8l-2 2-2 4-1-4h-2l.4-4.4.3-2.5c.3-2.1.3-2.1 1.3-3.1"/><path fill="#9ddef4" d="M270 231c3 1.5 3.6 4 5 7v2h-2l-2-2-3 2c-2.8-2.5-4.5-4.2-5-8 3 1 3 1 5 3z"/><path fill="#1b2741" d="M433 153c2.4 1 2.4 1 5 3 1.5 6 1.5 6 0 9l-4-1v-4l-1-5z"/><path fill="#aeb4bd" d="m20 440 1 2c.8 2 .8 2 2 3q.5 7.5-1 15h-1a37 37 0 0 1-1-20"/><path fill="#bcc2c9" d="M260 409c2.9 2.9 2.8 6.1 3 10-.4 3.5-.4 3.5-1 6l-2-2-1 5h-1c-.3-6.5.8-12.6 2-19"/><path fill="#0f8cdb" d="M394 400c0 3 0 3-1.2 4.4L391 406l-4 5-3-1c.5-3.7 1-5.7 4-8 3.5-2 3.5-2 6-2"/><path fill="#0e1a2c" d="m328 399 3 1 1 5 4 1 1 5-4 1-.8-2.4c-1-2.9-1-2.9-4.2-4.6-.2-3.1-.2-3.1 0-6"/><path fill="#bdc5d1" d="M290 231h1c.2 6.4-.4 11.9-2 18l-2-1c-.2-5.8.3-10.4 2-16z"/><path fill="#676b71" d="M55 126h1q.1 7.4-.7 14.5-.8 6.8-1.3 13.5h-2a96 96 0 0 1 2-21.7z"/><path fill="#273d57" d="m264 125 1 4h2l1-2 1 3-7 7-2-2h2l1-3-4-3z"/><path fill="#afb4bd" d="M144 30c1.9 2 1.9 2 3 4l-6.6 1.7c-2.5.3-4 0-6.4-.7l2-2-3-2q5.4-1.5 11-1"/><path fill="#082242" d="M329 392q2.5 3.6 4.2 7.6l1 2.3.8 2.1-1 2c-1.5-1.3-1.5-1.3-3-3v-3l-3-1zm-4 3 2 1c.6 2 .6 2 1.1 4.6l.5 2.5.4 1.9-2 1z"/><path fill="#063258" d="M342 354h1c1 17.3 1 17.3-5 25-1-3-1-3-1-5l-2-1 3-3h2c1.1-3.3 1.3-6.2 1.6-9.7l.2-3.6z"/><path fill="#112f50" d="M355 337h-2v4h6l-1 2c-2.3.4-2.3.4-5 .6l-2.8.3-2.2.1-1-3 1-2-2-2c5.6-1.1 5.6-1.1 9 0"/><path fill="#1c7bc9" d="M269 278h3v4h-2l1 4h3v2h3l-1 3c-7.3-4.7-7.3-4.7-9-7v-4h2z"/><path fill="#203651" d="M237 160c1.6 4 .2 7-1 11v4h-2l-1 4-2-1c2.9-12.7 2.9-12.7 6-18"/><path fill="#151824" d="m81 38 3 1-2 5 2 1-6 5-2-4 3-3-2-1h2z"/><path fill="#b0b4c2" d="m246 488 2 1c-1 6-5.5 10-10.1 13.7-3.8 2.5-3.8 2.5-5.9 3.3l-3-1 2-1c7.4-4 11.3-8.5 15-16"/><path fill="#5dc9f3" d="m192 327 2 1-3 2zm-4 4 2 1-2.7 2.7-5.4 5.3a65 65 0 0 0-6.7 7.4L174 349h-2c1.4-3 2.9-5.1 5.3-7.5l1.9-1.8 2-2 2-2z"/><path fill="#727f90" d="M312 255h1v9a25 25 0 0 1-10-5c3-1.8 4.2-2 8-2z"/><path fill="#2b3655" d="m253 136 1 2h3l1 3-4 4-3-2-3-1z"/><path fill="#16253d" d="M74 128h1c.1 8.6.1 8.6-1 12h-2l1 6c-2.6-2.6-2.3-3.7-2.3-7.3 0-4.4.4-7.3 3.3-10.7"/><path fill="#d2e6f0" d="M340 129h11v1h-5c-.7 1.9-.7 1.9-1 4l2 2h-6c-1-1-1-1-1-4z"/><path fill="#989ba4" d="M284 13h14l-3 2 2 2h-15z"/><path fill="#31a6de" d="M307 375h1l.4 3.8 1 10 .3 2.2c.3 2.2.3 2.2 1.3 5l-2 4a36 36 0 0 1-2.1-15.9v-2.6z"/><path fill="#545f6e" d="m309 276 7 1v6c-3.7-.5-5.8-.9-9-3h2z"/><path fill="#1d2940" d="M300 46c3.9 2.6 3.9 2.6 5 6 .2 3.6.2 3.6 0 7l-2 2c-2-5.1-3.4-9.5-3-15"/><path fill="#171d2e" d="M108 468c2 1 2 1 2.6 2.6q.7 4.7.4 9.4l-2-4-.4 2.3c-.6 2.7-.6 2.7-1.6 5.7l-2-1 1-6.4.5-3.6c.5-3 .5-3 1.5-5"/><path fill="#67d4f3" d="m379 343 5 3-1 3-12-4v-2c3.4-1.1 4.6-1 8 0"/><path fill="#d6d6de" d="M286 247a11 11 0 0 1 4 4q-.4 4.6-2 9h-2c-2-4-1.3-8.9 0-13"/><path fill="#2b3e55" d="M69 146h2c1.1 3.4 1.1 6 1 9.7v6.3l-2-4-2 2z"/><path fill="#1e2b3d" d="m161 54-1 3 2 2-3.8.1-2.2.1c-2-.2-2-.2-5-2.2l-4-2c4.7-1.2 9.2-1 14-1"/><path fill="#d3d7dd" d="M223.3 19h4.7c-1.4 2-1.4 2-4 4q-5 .4-10 0v-3c3.2-1 6-1.1 9.3-1"/><path fill="#19233b" d="M388 431h1v17l-4-2 1-10h2z"/><path fill="#6bb8dc" d="M39 392h1v6l2 1-1 2.3q-1.7 7.3-2 14.7h-2q-.2-8.3 1-16.5l.3-2.2z"/><path fill="#b9f1fc" d="M393 364c3.1 4.7 3.1 8.2 3 13.8v6.2h-2l-2-9h2z"/><path fill="#b3b7c0" d="m277 301 4 2-.2 4.4-.2 2.4-.6 2.2-4 2z"/><path fill="#37a4dd" d="M401 269c0 3 0 3-2 6l-3 1-2.5 2.6C391 281 391 281 388 281v2l-4-1 2.2-1.6q7.6-5.3 14.8-11.4"/><path fill="#aee3f3" d="M440 226c2 3 2 3 1.9 5q-2.2 8.7-5.9 17c-1.1-3.3-.9-4.2 0-7.4l.7-2.6.7-2.7z"/><path fill="#d6eef3" d="m253 146 4 1-3.4 4.9-1.9 2.7C250 157 250 157 248 159l-2-2z"/><path fill="#c5c9d2" d="M179 26v2l-1.8.4L172 30h-7v-3c9.4-2.5 9.4-2.5 14-1"/><path fill="#393c45" d="M30 501v2h-2l2 6-2 2-3-2.9-1.7-1.6C22 505 22 505 22 503c3-1.8 4.2-2 8-2"/><path fill="#1c64a7" d="m412 279 4 1c-4 4.3-8 8-13 11v-3h2v-4l3-1.4c3-1.3 3-1.3 4-3.6"/><path fill="#c4cdd5" d="M296 192h1q.3 9-1 18h-2l-.1-6.7-.1-3.8c.2-3.2.5-4.9 2.2-7.5"/><path fill="#b8c9d4" d="M289 146v10l5-4v5l-7 2-1-9h-3c3.8-4 3.8-4 6-4"/><path fill="#1e62a2" d="m358 451 1.7.5c6 1.3 12.4.7 18.3-.5-2 3-2 3-5 4-9.8 1-9.8 1-13.7-2z"/><path fill="#54acd3" d="M36 416h1l.1 1.8c.7 8.7 4.6 14.2 10.9 20.2a19 19 0 0 1-11.3-9.2c-1-4.2-.9-8.4-.7-12.8"/><path fill="#8e939c" d="M317 422h5v2h2v2q6.6 1.3 13.4 1h6.6c-4.7 3.1-9.5 2.6-15 2-5.1-1.4-9-2.5-12-7"/><path fill="#2bb5ee" d="m394 391 .4 2 .6 2 2 1v-5h2c-.9 5.8-.9 5.8-2 8l-7 3v-3h2l-.1-2.9c.1-3.1.1-3.1 2.1-5.1m0 5 1 2Z"/><path fill="#10223c" d="m349 338 1 3c-2 3-2 3-4.1 3.7l-1.9.3v-3h-4l1-3c3-1 5-1 8-1"/><path fill="#3c4455" d="m407 294 1 4c-3.7 3-3.7 3-6 3l-2-2v-4c2.5-1.2 4.3-1 7-1"/><path fill="#7a8291" d="M451 201h1q.3 13.5-1 27h-1l-.2-1.8-.2-2.4-.3-2.4c-.2-2.4-.2-2.4-.9-4.6-.4-1.8-.4-1.8.6-3.8h2z"/><path fill="#0a0f1f" d="m248 493 3 1c-1.4 4.4-3.5 7-7 10h-2c1.5-4.1 3.5-7.4 6-11"/><path fill="#269ce5" d="M378 430v2h-3l-1 3c-2 1.3-2 1.3-4.4 2.5-3.4 1.7-4.5 2.3-6.6 5.5 0-2.1 0-2.1 1-5 3.6-3.4 8.8-8 14-8"/><path fill="#1973b9" d="M345 410c3 1 3 1 4 2 1 3 1 3 1 6a21 21 0 0 1-10-7l5 1z"/><path fill="#40c1f2" d="M259 253c1.9.2 1.9.2 4 1 1.7 2 1.7 2 3.3 4.6l1.5 2.5 1.2 1.9-2 1-2-3-2.5-1.4a9 9 0 0 1-4.5-5.6z"/><path fill="#5e7a91" d="M274 242h2l.6 4.3.4 2.3c0 2.7-.6 4.1-2 6.4-1.6-1.4-1.6-1.4-3-4q.6-4.6 2-9"/><path fill="#152740" d="m59 221 3 1 .1 4.8.1 2.6c-.2 2.7-.8 4.3-2.2 6.6-1.4-2.9-1-5.4-1-8.6V221"/><path fill="#29344f" d="m379 112 8 1v2l10 1-1 5-17-8z"/><path fill="#212d41" d="m345 97 1 2c2.5.7 2.5.7 5 1l-1 4h7v1h-12z"/><path fill="#19283e" d="M302 65c2 3.3 2.1 5.4 1.6 9.3l-.3 2.7-.3 2-3 1c-.2-5.4.5-9.8 2-15"/><path fill="#c4cad2" d="m82 46 4 2c-1.6 3-1.6 3-4 6-3.2.4-3.2.4-6 0 3.8-5.7 3.8-5.7 6-8"/><path fill="#63646b" d="M84 36v2l-1.9.6c-2.4 1.3-2.4 1.3-3 4.4L78 46c-3.6 1.4-3.6 1.4-7 2 2-4.8 7.4-12 13-12"/><path fill="#acb1ba" d="M178 24h6v3h6v1l-18 2 3-1 1-2 3 1z"/><path fill="#b8bcc3" d="M267 14h16l-1 3-5.8.2h-3.3C270 17 270 17 267 14"/><path fill="#151b2d" d="M129.8 454.9h2.4l1.8.1-3 3 1 2c-7.5.4-7.5.4-10-1.5l-1-1.5c3-1.8 5.2-2.2 8.8-2.1"/><path fill="#208ecc" d="M205 442h3l1 3h-31v-1h27z"/><path fill="#3a4357" d="M383 307c.7 2 .7 2 1 4-2.3 1.6-2.3 1.6-5 3l-3-1 2-1-2-5c3-1 3.9-1 7 0"/><path fill="#2b3952" d="M370 281v4l4-1v4c-6.7-.7-6.7-.7-9-3l-4-2c6.8-2 6.8-2 9-2"/><path fill="#0c9ced" d="m229 440 2 2 2 1 1-2 2 2c-3 2-3.7 2.2-7.2 2.1l-3.8-.1-1-4c3-1 3-1 5-1"/><path fill="#1f2a47" d="m37 430 2 3 2.1 2c1.9 2 1.9 2 1.9 5h5v2l4 1c-4.5.4-7.2-.6-11-3-2-2-3.4-3.6-5-6 .2-2.4.2-2.4 1-4"/><path fill="#1f6db4" d="M329 383h3l-1 10h2v8c-4-5.9-4.3-11.1-4-18"/><path fill="#5e6879" d="m375 330 1 4 2.3.3c2.9.7 3.9 1.5 5.7 3.7l-2 1v-2h-2l-1 4-3-1-1-3h2v-2h-2z"/><path fill="#13385a" d="m403 262 4 1-2 3h-2l-.7 1.8a14 14 0 0 1-5.3 5.2l-1-4 1.8-.7c2.8-1.6 3.7-3.5 5.2-6.3"/><path fill="#4c5266" d="M287 261h2v2l3 1v7c-2.5-1-2.5-1-5-3-.3-3.7-.3-3.7 0-7"/><path fill="#2590d4" d="M237 234h3l1.5 5.2.8 3c.7 2.7.8 5 .7 7.8-2.5-2.5-3-4.6-4.1-8l-1.1-3.2c-.8-2.8-.8-2.8-.8-4.8"/><path fill="#bfe2ef" d="M282 178h2v5l-3 1-2 4-4 4q2-7.7 7-14"/><path fill="#d5dae0" d="M63 130c2 2 2 2 2.3 4.3v5.3C65 142 65 142 63 145c-1.3-2.6-1.1-4.6-1.1-7.5v-3c.1-2.5.1-2.5 1.1-4.5"/><path fill="#263349" d="M305 56h1c.2 5 .2 8.5-2 13l-3-1 1-10 2 1z"/><path fill="#1e2a3e" d="m138 57-2 5h-6l-2-2-5-1v-1q7.5-1 15-1"/><path fill="#0e2946" d="m84 441 7.8-.1H94c3.8-.1 6.7 0 10 2.1-7.2.9-13 1.3-20-1z"/><path fill="#1c3756" d="M38 397h1q-.8 9.6-2 19c-3-4.5-3.1-7.7-3-13l2 2z"/><path fill="#18314d" d="M257 377c.3 5 0 8-3 12h-1l-.2-4.3v-2.4c.2-2.4 1.3-5.3 4.2-5.3"/><path fill="#73dcfa" d="M365 343v1l-9 1v2l-3 3 2 1-6 1c3.3-7.6 8-10.5 16-9"/><path fill="#dbfbfe" d="M370 346a20 20 0 0 1 13 3l-3 1-2-1-1 3-7-4z"/><path fill="#4e5868" d="M434 262h3c-.5 4.5-2.4 7.3-5 11l-4-5c1.8-1.6 1.8-1.6 4-3l3 1z"/><path fill="#707888" d="M449 228h1c-.6 6.3-2 12-4 18-2-3-2-3-2-5h2l-.6-1.6c-.7-4.4 1.2-7.8 3.6-11.4"/><path fill="#c8e4ec" d="m442 211 2 1a50 50 0 0 1-2 17h-1q-.2-9 1-18"/><path fill="#b8bfca" d="M296 181c2.5 2.6 3 3.8 3 7.5l-.3 3.8-.4 3.8q0 1.5-.3 2.9h-1l-.4-2.2c-.5-2.7-.5-2.7-1.2-4.7a19 19 0 0 1 0-6.8l.3-2.5z"/><path fill="#dffcfe" d="M390 122h4v2l2.1.8c3.3 1.4 6 3 8.9 5.2v2h2l-1 3-2.2-1.8-3-2.4-3-2.4z"/><path fill="#182541" d="M40 372h1v5.9l.1 3.3C41 384 41 384 40 386h-2l-.1-4.7-.1-2.7c.2-2.7.8-4.3 2.2-6.6"/><path fill="#54cff4" d="m260 293 5 1c1.2 5.4 1.2 5.4 0 8.4l-1 1.6c-2.5-3.7-3-6.7-4-11"/><path fill="#c5e7eb" d="M237 185c1.5 4 .5 7.2-.4 11.3l-1 3.8q-.2 1.5-.6 2.9h-1l-.2-6.2v-3.5c.2-3.6 1.1-5.4 3.2-8.3"/><path fill="#1e2c47" d="m446 180 2 2c0 2.2 0 2.2-.4 4.6l-.3 2.5-.3 1.9c-3-1-3-1-5-3v-5h2l1 2z"/><path fill="#676f81" d="m376 104 4.4 1.4 2.4.7c2.2.9 2.2.9 4.2 2.9l-7 1v-3h-3zm0 5 3 1-1 2-5-1z"/><path fill="#0e1b2c" d="M100 61h7v1l6 1c-3.5 2.1-6.2 2.2-10.2 2.1h-3.3L97 65v-1h5v-2z"/><path fill="#0b0f21" d="m91 502 13 1v3c-4.7.1-4.7.1-7-1h-6z"/><path fill="#656b78" d="m401 405 2 1a34 34 0 0 1-7 12h-2v-3h2l-1-3 2.4-1.8c2.8-2 2.8-2 3.6-5.2"/><path fill="#ced3db" d="m295 325 2 1c-1.2 3-1.2 3-3 6-2.7.9-2.7.9-5 1v2h-2c1.4-5 4-7 8-10"/><path fill="#0f2f59" d="m288 299 2 .8 9.8 3.8 3.5 1.4 2.7 1v1c-4.8.3-7-.4-11-3l-7-3z"/><path fill="#b5e1f0" d="M254 235a45 45 0 0 1 6.2 10.8l1.6 3.5 1.2 2.7-2 1-3.5-6.7-1-2a17 17 0 0 1-2.5-9.3"/><path fill="#21324c" d="M233 225v8l-3-1-1 2-1-8c3-1 3-1 5-1"/><path fill="#a6aeba" d="M293 200h1v10h2l-1 8c-2.7-2.7-3-4-3.2-7.9q0-5 1.2-10.1"/><path fill="#b5bac8" d="M29 489q6.7 2.1 13 5v1c-5-.4-9.4-.8-14-3z"/><path fill="#5c616e" d="m347 450 5 1-1 4h4l2 5c-5-1.4-7-4-10-8z"/><path fill="#334051" d="m343 422 3 1-1 15h-1v-11h-4c1.9-3.9 1.9-3.9 3-5"/><path fill="#1d324c" d="M253 396c1.3 4.3.7 7.6 0 12h-2v2h-2c.6-5 2.1-9.3 4-14"/><path fill="#17233b" d="M337 318h2c1 4.4 1 7-1 11l-2-1v-4.4l-.1-2.5c.1-2.1.1-2.1 1.1-3.1"/><path fill="#c9ced6" d="M41 293c2 2 2 2 2.3 4v4.9C43 304 43 304 41 306c-1.3-2.5-1.1-4.3-1.1-7v-2.8c.1-2.2.1-2.2 1.1-3.2"/><path fill="#49bee9" d="M438 230h1q-.9 6.4-2 12.8 0 1.4-.4 2.7c-.6 2.5-.6 2.5-2.6 5.5-1.2-6.6-1.2-6.6 1-10l1.6-5.7.8-3z"/><path fill="#5e748c" d="M278 214h1l1 6h-2l-1 3zm2 2 2 2c0 3.3 0 3.3-.4 7.1l-.3 4-.3 2.9h-1c-.7-4.7-1.2-8.3 0-13z"/><path fill="#afb4bc" d="m65 110 1 3h2l1-3-1 14h-1l-1-7-1 5h-1c-.1-8.6-.1-8.6 1-12"/><path fill="#16233b" d="M78 92h2c.5 7.4.5 7.4-2 10.5l-2 1.5.4-5.4.3-3.1C77 93 77 93 78 92"/><path fill="#13141f" d="M330 21c3.7.5 5.6 1.1 8 4a10 10 0 0 1-7 4l-1-3 3-2z"/><path fill="#b4b8c1" d="M17 462h1l.1 1.9.3 2.4.2 2.4c.3 2.6.3 2.6 2.4 5.3-.4 3.7-.4 3.7-1 7-2-1-2-1-2.6-2.6q-.6-4.8-.5-9.6v-3.9z"/><path fill="#141f31" d="m347 417 1 5c-3 1-3.9 1-7 0v-4c2-1 2-1 6-1"/><path fill="#148ad8" d="m312 406 12 2-5 4c-2.4-.7-2.4-.7-5-2z"/><path fill="#2eb6e9" d="M309 372c2.3 2.7 3.9 4.6 5 8 1.5 1.7 1.5 1.7 3 3h-6l-1 2 1-8h-2l-1-3z"/><path fill="#3f475b" d="m283 335 3 1-1 14h-1v-7h-2v-7z"/><path fill="#31a8e7" d="M367 319v4h-2v3h-2l-2-2-3-2c6.8-3 6.8-3 9-3"/><path fill="#5d6a7b" d="m423 273 2.9.6c3 .7 3 .7 5.1-.6l-2 4h-2l-.4 2-.6 2-2 1 1-4-4-2z"/><path fill="#767e8d" d="M309 161v7l-7-1v-4c3-2 3-2 7-2m-3 2-1 3h3v-3z"/><path fill="#1c2b46" d="M239 156h7c-.6 2.4-.6 2.4-2 5-3.1.8-3.1.8-6 1z"/><path fill="#24344b" d="M73 117c3.3 4.9 3.1 9.2 3 15l-2-3-2 1z"/><path fill="#41abde" d="M320 120c-5 3.4-10 4.3-16 4 1-2 1-2 4-3.1 4.1-1.1 7.8-1 12-.9"/><path fill="#e5fbfd" d="M313 107c3 .6 4.4 1.3 7 3l-16 4c2.4-3.6 4-3.7 8-5z"/><path fill="#121f35" d="M79 78h3q0 2.3-.3 4.4l-.2 2.4C81 87 81 87 78 89z"/><path fill="#090e21" d="M80 501h10l-1 3h-9z"/><path fill="#9da3a9" d="M252 461h1v19l-3-2 .4-5.7.3-3.2a70 70 0 0 1 1.3-8.1"/><path fill="#0c3d68" d="M242 436a9 9 0 0 1 1 4c-1.4 2.7-1.4 2.7-4 5q-4.5 1-9 1c3-2 3-2 6-3.3 3.3-1.9 4.4-3.3 6-6.7"/><path fill="#4dc7fd" d="m90 429 1 2-4 4h-2l-2 4-3-1 2.8-3.4 1.5-1.9c1.8-1.8 3.4-2.7 5.7-3.7"/><path fill="#d3d6df" d="M26 412h1c.2 5 .2 8.5-2 13h-2l.5-2.1c.6-3 .6-3 .4-6 .1-2.9.1-2.9 2.1-4.9"/><path fill="#16a2f0" d="M314 399h6l-3 1 1 7-4-1z"/><path fill="#1f3f5a" d="M43 360h1l-.4 6.8-.2 3.7c-.4 3.1-.8 5-2.4 7.5l-.1-7.3v-2.1c-.1-3.8 0-5.4 2.1-8.6"/><path fill="#5db1df" d="m378 285 2 1c-2.9 4.2-5 6-10 7-2.4-.4-2.4-.4-4-1l5-2v-2z"/><path fill="#d0d4dd" d="m44 271 2 1v10l-3 1v-4.3l-.1-2.4c.1-2.3.1-2.3 1.1-5.3"/><path fill="#188ad2" d="m427 260 3 1-5 7-4-1z"/><path fill="#c9dae4" d="M238 176c2 3 2 3 1.6 6.2l-.6 2.8h-2l-1 3c-1.1-3.3-.9-5 .4-8.2l1-2.2z"/><path fill="#103c5d" d="m270 149 2 1-1 2.9c-1.1 2.9-1.1 2.9-1 5.1l-6 3c.5-4.4 2.1-6.7 5-10z"/><path fill="#1d2844" d="M413 129c2.2.3 2.2.3 4 1l-1 7-6-5c1.3-1.6 1.3-1.6 3-3"/><path fill="#38a3d5" d="M307 124c-2.3 2.3-4.5 3.3-7.4 4.7l-3 1.4c-2.6.9-2.6.9-5.6-.1l3.8-2.4 2.2-1.4c3.4-2 6.1-2.3 10-2.2"/><path fill="#c9ccd4" d="m155 29-1 2h-2v2c-2.9.2-2.9.2-6 0l-2-3c3.7-1.2 7.2-1 11-1"/><path fill="#111729" d="m46 496 2 2c-3 1-5 1.1-8.2 1H35v-2a36 36 0 0 1 11-1"/><path fill="#d7dee5" d="m113 477 1 2 4 2v2h-3l1 3h-3c-1.1-3.3-.8-5.6 0-9"/><path fill="#c8ced4" d="M128 460h8l-3 1-1 3-7 1 2-1c.7-2 .7-2 1-4"/><path fill="#18314a" d="M35 420h1l2 10h-2l-1 3c-1.4-2.3-2-3.6-1.8-6.4l.7-2.4.6-2.4z"/><path fill="#333b50" d="M405 401c-.7 2.4-.7 2.4-2 5-2.6.8-2.6.8-5 1l-1-4c3.2-2.2 4.3-2.2 8-2"/><path fill="#2c334e" d="M402 357c2 3 2 3 2 6l-5 1c-1-1-1-1-1-3.6V358z"/><path fill="#cfd0d5" d="M271 346h2l.1 4.4.1 2.4c-.2 2.2-.2 2.2-2.2 4.2-1-1-1-1-1.1-3v-5c.1-2 .1-2 1.1-3"/><path fill="#c3c6ce" d="m277 312 2 1-1 11c-3-4-3-4-2.7-7.1.7-2.9.7-2.9 1.7-4.9"/><path fill="#18213a" d="M410 289v6a36 36 0 0 1-8-1l2-1v-2c3.8-2 3.8-2 6-2"/><path fill="#58bae9" d="m269 264 3.4 2.8 2 1.6c1.6 1.6 1.6 1.6 2.6 4.6l3 1-4 2-.4-2-.6-2-2-1v-2l-4-1z"/><path fill="#192d48" d="m54 259 3 2c.6 7.1.6 7.1-2 11-.9-3-1.1-5.6-1-8.7V259"/><path fill="#182740" d="M238 249h3l2 7-2 1-4-2z"/><path fill="#7c7e86" d="m133 24-1 2c-2.2.6-2.2.6-5 1-3.6.7-3.6.7-7 2l-5-1q8.4-4.5 18-4"/><path fill="#505158" d="m16 493 2 2 2 .4 2 .6c1 3 1 3 0 5.2l-1 1.8-3-3.3-1.8-1.9L15 496z"/><path fill="#182e47" d="M262 328a11 11 0 0 1 1.6 8.8l-.3 2.4-.3 1.8-2-1v-4.3l-.1-2.4c.1-2.3.1-2.3 1.1-5.3"/><path fill="#545868" d="m308 312 5 1 1 2 3 2-6-1-1 7h-1l1-7-3-1z"/><path fill="#4ebdea" d="m291 283 15 7v1c-3.8.2-6.5-.3-10-2l-1-2h-2v-2h-2z"/><path fill="#8cd6ef" d="M59 256h1l.1 5.2.1 3c-.2 3-1 5-2.2 7.8h-1c0-5.1 0-10 1-15z"/><path fill="#0c0d16" d="M41 239h1c.3 7-.4 13.2-2 20h-1c-.2-7 .2-13.2 2-20"/><path fill="#bfc6cf" d="M304 136h2l.4 3.4c.4 3.4.4 3.4 1.6 5.6h-5c-.1-6.7-.1-6.7 1-9"/><path fill="#1e2e45" d="M297 96h3c-.5 6-.5 6-1 8l-3 2c-.1-7.7-.1-7.7 1-10"/><path fill="#2eb5f1" d="m93 428 2 1c-2.3 3.5-4.3 4.3-8 6l2-4h2v-2zm-8 7h2v4l-4-1z"/><path fill="#979ba5" d="M264 382c3.4 4.5 4.3 5.8 3.6 11.3l-.6 2.7h-1v-6h-2l-1 2z"/><path fill="#47b4ec" d="m353 343 4 1-1.9.3c-2.2.5-2.2.5-3 2.4L351 349l-5 5c0-3.8 1-4.5 3.5-7.2l2-2.2z"/><path fill="#394456" d="M419 280h5c-1.2 3.7-1.7 4.8-5 7-1.1-4.7-1.1-4.7 0-7"/><path fill="#1982cf" d="m262 270 3 1v2l1.9.8c2.1 1.2 2.1 1.2 4.1 4.2h-3v-2h-5v-3l-2-1z"/><path fill="#2a3c5a" d="M412 237c1.6 1.7 1.6 1.7 3 4-.8 2.8-.8 2.8-2 5h-3c.9-6.7.9-6.7 2-9"/><path fill="#aab0ba" d="M53 223c1 4 .9 5.8 0 9.8l-.5 3-.5 2.2c-3-3-2.6-5.8-3-10l2 4z"/><path fill="#213049" d="m231 183 3 1 1 6-3-1-3 2v-5h2z"/><path fill="#2b4158" d="m70 140 2 4v-4h2c.3 8.6.3 8.6-2 12a27 27 0 0 1-2-12"/><path fill="#606a7c" d="M388 109c3.8 1 6.5 2 9 5l-3 1v-2l-6 1-1-4z"/><path fill="#1f3049" d="M289 108h4l1 5-4 2v-2l-2-1z"/><path fill="#3d4959" d="M308 94h2l-1 7 2 1-8 1 3-5h2l-1-3z"/><path fill="#ccd1d9" d="M106 38v3c-2.7 1.4-5 1-8 1v-3c2.7-1.4 5-1 8-1"/><path fill="#b0b3bb" d="m25 404 2 4 2-2-1 10-2-3-2 1z"/><path fill="#5cd2f9" d="M344 356h3l-.4 5.4-.2 3.1-.4 2.5-2 1z"/><path fill="#2c374e" d="m316 340 1 3 3 2-6 2-2-3-2-1c3.8-3 3.8-3 6-3"/><path fill="#197fd3" d="m289 290 7 3-1 4c-3.3-.6-4.8-1.5-7-4z"/><path fill="#293854" d="M53 264c1.8 3.6 2.3 5.4 2.6 9.3l.3 2.7.1 2-2-4-2 3z"/><path fill="#0c3758" d="M434 251h1c.5 5.3-.7 8-4 12h-2q2-6.1 5-12"/><path fill="#cbd0da" d="M54 198c2 2 2 2 2.2 4.4v2.7L56 208 56 210l-2 1-1-7 1-1z"/><path fill="#1a344c" d="M65 195h1c.2 10.6.2 10.6-1 15l-1-2h-2z"/><path fill="#dee0e6" d="M313 108v2c-2.8 1.4-5 1.2-8 1l-2-2c6.3-2.4 6.3-2.4 10-1"/><path fill="#0b0f1f" d="m130 456 7 1-2 3-10-1v-1l5-1z"/><path fill="#112a49" d="M234 447c-5.2 3-5.2 3-8.7 2.8-2.3-.8-2.3-.8-5.3-2.8l4.8-.6 2.6-.3c2.5 0 4.3.2 6.6.9"/><path fill="#1c2538" d="m335.7 423.8 2.3.2 1 4h-9c2.3-4 2.3-4 5.7-4.2"/><path fill="#151b2d" d="m317 416 3 1 1 5-2 1-4-3c1-3 1-3 2-4"/><path fill="#141a27" d="M326 385h1l1.1 5.9.7 3.3.2 2.8-2 2c-2.3-3.6-2.2-6.8-2-11z"/><path fill="#52c9e6" d="m393 359 3 1v11c-1.8-3.7-3-7-4-11z"/><path fill="#cfd4db" d="M37 321c2.7 4 2.2 6.2 2 11l-3 1v-4.3l-.1-2.4c.1-2.3.1-2.3 1.1-5.3"/><path fill="#1f2b42" d="M266 313h1c.2 8.3.2 8.3-1 11l-3 1v-5h2z"/><path fill="#1e2a47" d="m268 293 3 1-2 10h-2z"/><path fill="#d1eefa" d="m273 229 3 1-1 8c-1.5-1.2-1.5-1.2-3-3-.2-2.6-.2-2.6 0-5z"/><path fill="#7cdcf7" d="m399 129 6 4-5 4-2-1z"/><path fill="#73798b" d="m408 122 5 2v2l2 .9c2 1.1 2 1.1 3 3.1l-6-2v-3h-5z"/><path fill="#e3fafd" d="m283 105 2 1-3 3 2 2-4 2-3-2c1.3-2 1.3-2 3-4h3z"/><path fill="#28364a" d="M81 84c1.1 3.3.8 5.6 0 9h-4v-8l2 3z"/><path fill="#d7f6fb" d="m254 77 2 2-4.9 4.4-2.7 2.5C246 88 246 88 244 89c1.6-3.8 4-6.2 7-9l1.8-1.8z"/><path fill="#7e8692" d="M343 50h1l.1 4.9.1 2.7C344 60 344 60 342 62l-2-2c.4-2.6.4-2.6 1-5h1z"/><path fill="#1e2537" d="M56 497h6v2a27 27 0 0 1-12 2c3-2 3-2 6-2z"/><path fill="#0a294d" d="M351 431h1l.1 2.4c.6 8 .6 8 2.9 15.6h-2c-2.5-3.7-2.2-6.4-2.1-10.7v-2.1z"/><path fill="#a6a7b2" d="M255 442h3c1 2.6 1.1 3.6 0 6.3l-1 1.7v-2h-2l-1 3z"/><path fill="#0d1e36" d="M379 421h6l-1 3h-4l-1.5 1.5-1.5 1.5h-4v-2h5z"/><path fill="#1b243e" d="m380 337 4 1 1 5-4 1-2-4z"/><path fill="#1f68ab" d="m398 291 4 1-9 6-2-3h5z"/><path fill="#cde1ed" d="M392 265c-1.5 3.8-3.4 5.1-7 7 0-3 0-3 1.8-5.2 2.2-1.8 2.2-1.8 5.2-1.8"/><path fill="#808c9c" d="M276 244q3.3 4.3 6 9c-3.7 1.1-3.7 1.1-6 0z"/><path fill="#b1bcc9" d="M290 221h1v5h2l-1 8-3-2z"/><path fill="#667286" d="M324 189h1v9l-2 1-2 3c.5-4.7 1-8.7 3-13"/><path fill="#293c57" d="m268 165 3 1-5 9h-1v-7l3-1z"/><path fill="#4e566e" d="m424 137 3 1a32 32 0 0 1 2 5l-2-1-1 2h2l-1 4v-2h-3l.6-2.8c.6-3.2.6-3.2-.6-6.2"/><path fill="#163e65" d="m390 136 6.3 4.4 1.7 1.6v3l-2-2-6-1z"/><path fill="#184c6d" d="m324 121-8 2v2h-9a27 27 0 0 1 8-3.7l2.5-.8c2.5-.5 2.5-.5 6.5.5"/><path fill="#2687bc" d="m361 122 8.4.4c2.6.6 2.6.6 4 2.6l.6 2-4.8-1.4-2.7-.7c-2.5-.9-2.5-.9-5.5-2.9"/><path fill="#697082" d="m400 116 8 4-1 2-4 1c-1.7-2.6-2.4-4-3-7"/><path fill="#e2f0f5" d="M361 107c2.4.3 2.4.3 5 1 1.3 2 1.3 2 2 4h-6z"/><path fill="#3d4d64" d="M295 101h1l1 6-3 1v3l4 1-4 1-.4-2.4-.6-2.6-2-1 4-1z"/><path fill="#6e7584" d="M327 37h1v9l3 1-2 2-1 6h-1z"/><path fill="#d9dbe0" d="M285 14h15l1 3-16-2z"/><path fill="#090e1e" d="M109 475h1l1 8-3 1c-.6-3.4-.6-3.4-1-7z"/><path fill="#737578" d="M289 458h1c.2 9.4.2 9.4-1 14h-1c-1-5.4-1.2-8.8 1-14"/><path fill="#172844" d="M386 423h1v5l-1 1-1 7h-1v-8h-2l1-3h2z"/><path fill="#cfd4d8" d="M260 422h1l.1 4.3.1 2.4c-.2 2.3-.2 2.3-2.2 5.3a17 17 0 0 1 1-12"/><path fill="#052446" d="m328 406 4 1 1 5h2l-1 4-3-4.4-1.7-2.5C328 407 328 407 328 406"/><path fill="#2faddd" d="M399 373h1v17h-1l-.4-2.8c-.5-3.2-.5-3.2-1.6-6.2l1-1z"/><path fill="#71d1f1" d="M386 364c4.4 3.5 5 6.7 6 12a18 18 0 0 1-6-9z"/><path fill="#cacfd9" d="m301 322.8 6 .2-3 4-7-2c2-2 2-2 4-2.2"/><path fill="#082754" d="m418 276 1 3c-1 1.8-1 1.8-2.7 3.6l-1.6 1.9a10 10 0 0 1-5.7 2.5l1.2-1.4q4.1-4.6 7.8-9.6"/><path fill="#6ec4e6" d="M247 272c3.3 3 5.6 6.3 8 10l-2 1a55 55 0 0 1-6-7z"/><path fill="#2baff5" d="m419 264 4 1c-4.7 4.9-4.7 4.9-7 6v-4h2z"/><path fill="#636f82" d="M286 184h1l-1 13h-1l-.6-4.8-.4-2.7c0-2.5 0-2.5 2-5.5"/><path fill="#1e2744" d="M237 173c1 2.8 1 3.9 0 6.8l-1 2.2-2-1c-.2-2.9-.2-2.9 0-6z"/><path fill="#d4d7dd" d="M57 172h3l-1 10c-2-2-2-2-2.2-4z"/><path fill="#1c2d49" d="m273 125-2 2-1 2h-5v-4c3.3-.8 4.7-1.1 8 0"/><path fill="#424d5b" d="m86 48 1 2-3.6 5.4C82 57 82 57 79 58c1.7-4 4.2-6.8 7-10"/><path fill="#afb1ba" d="M319 48h1l-1 13c-3-4-3-4-2.8-7 .8-3 .8-3 2.8-6"/><path fill="#acb3bb" d="M114 466a15 15 0 0 1 2 4c-.7 2.2-.7 2.2-2 4l-3 1c.5-3.7.9-5.8 3-9"/><path fill="#bec4ce" d="m118 464 2 1c-.3 1.9-.3 1.9-1 4l-3 2-1-5z"/><path fill="#1b2338" d="M397 406h3l1 3c-3.7 3-3.7 3-6 3zm-3 6 2 2h-2z"/><path fill="#cdd1d4" d="M269 365h1l.1 4.3.1 2.4c-.2 2.3-.2 2.3-2.2 5.3l-2-1z"/><path fill="#b1b6be" d="m35 328 3 1 1 7h-4z"/><path fill="#263553" d="M51 278h1l.4 3.4c.2 3.4.2 3.4 1.6 4.6v6l-3-1z"/><path fill="#94ddf5" d="M228 230h1l1 10-5-1z"/><path fill="#1b2b45" d="M261 230c.8 1.8.8 1.8 1 4-1.8 2.3-1.8 2.3-4 4h-2v-5l2-.4 2-.6z"/><path fill="#31bff2" d="M438 223h1c.3 7.4.3 7.4-2 11l-1-1c0-2 0-2 .4-4.5l.2-2.5c.4-2 .4-2 1.4-3"/><path fill="#b0b7be" d="M54 193c2.1 2.4 3 3.5 3.2 6.8L57 202l-2-2v4h-2c-.1-7.4-.1-7.4 1-11"/><path fill="#33a6d3" d="m273 144 1 2-2 3h-2l-.9 2.4C268 154 268 154 266 155l1-5h2v-2h2z"/><path fill="#d2e7ef" d="m91 68 3 1c-1 2-1 2-3.3 3.4A30 30 0 0 0 84 78c1.4-4.4 3.6-6.9 7-10"/><path fill="#bdc1cb" d="M122 33c7.8.8 7.8.8 10 3-2.8.8-4.5 1.2-7.2.2C123 35 123 35 122 33"/><path fill="#4b4b54" d="M325 14c3.9 1.8 3.9 1.8 5 4h-3v2l-3 1-1-2z"/><path fill="#2999d1" d="m307 388 2 4 1.3 2c.7 2 .7 2-.2 4.3L309 400a27 27 0 0 1-2-12"/><path fill="#7bc8e3" d="M44 359c2.3 4.5 2 6.2 1 11h-2z"/><path fill="#66c1e8" d="M255 283c3.8 1.5 5.6 3.8 8 7-3 0-3 0-5.7-2.4-2.3-2.6-2.3-2.6-2.3-4.6"/><path fill="#a6aab3" d="m44 266 1 3h2l1-3-1 8-2-2-2 2z"/><path fill="#b0bac6" d="m277 237 4 2-3 7c-2-2-2-2-2.2-5 .2-3 .2-3 1.2-4"/><path fill="#27425d" d="M262 230c2 3 2.5 4.6 3 8l-6-1z"/><path fill="#546179" d="M279 225h1v11l-3-2z"/><path fill="#64788c" d="M304 196h1v5h4v2l-1.9.9c-2.2 1-2.2 1-4.1 3.1-.1-7.4-.1-7.4 1-11"/><path fill="#e6f1f5" d="M439 182h2c1.6 3.2 1 6.4 1 10h-2z"/><path fill="#103a67" d="M408 154c3.4 3.1 5.6 5.6 7 10h-2l-1-4h-3z"/><path fill="#757c8b" d="M432 147c3 2.8 4.7 5 6 9-2.4-1.1-2.4-1.1-5-3-.8-3.2-.8-3.2-1-6"/><path fill="#152643" d="m248 143 4 1v2l-5 4c-1-3-1-3 0-5.2z"/><path fill="#c7dfe7" d="m300 54 2 1v9l-2 1c-1.3-7.4-1.3-7.4 0-11"/><path fill="#070b17" d="m81 38 3 1-2 5-5-1 2-1z"/><path fill="#cbd2dc" d="M123 37c-3 2-3.7 2.2-7.2 2.1L112 39l-1-2c4.3-1 7.7-1 12 0"/><path fill="#bac0c8" d="M194 22h5l1 3c2 .7 2 .7 4 1h-8v-3z"/><path fill="#0d2a4f" d="m381 448 1 2-1 2h3v2h-8z"/><path fill="#0b274c" d="m314 309 12 2-1 2q-5.6-1-11-3z"/><path fill="#a8afb8" d="M39 300c2.1 2.6 3.7 4.6 4 8-1 2.3-1 2.3-2 4a27 27 0 0 1-2-12"/><path fill="#2570b6" d="m269 285 5 1v2h3l-1 3c-5.9-3.7-5.9-3.7-7-6"/><path fill="#1e2642" d="M427 269c2 3 2 3 2 6l-4-1v-4z"/><path fill="#1d2642" d="M429 263h6v3l-7 1z"/><path fill="#32a9e2" d="m432 252 2 1-4 7-3-1 1-3h3z"/><path fill="#81c1d8" d="M229 234c1.9 2.9 2.5 4.4 3.1 7.7l.5 2.4.4 1.9h-2a27 27 0 0 1-2-12"/><path fill="#78899b" d="M316 202h5l-1 6h-2z"/><path fill="#9fddf0" d="M68 182c2.2 4.4 2 7.2 2 12h-2z"/><path fill="#8c91a1" d="M438 156c3.4 2.7 4 5.9 5 10h-2c-2.5-2.5-3-3.7-3.2-7.2z"/><path fill="#49d0fa" d="m265 148 4 2h-2l-2 5-1-2h-2v-2h2z"/><path fill="#1d2b49" d="m422 140 3 1-1 5 2 1h-3l-2-5z"/><path fill="#b3b7c0" d="m300 14 4 1-1 1 4 4-8-2z"/><path fill="#1d1f2c" d="M19 482c3.9 4.8 3.9 4.8 5 7l-2 2a17 17 0 0 1-4-5c.4-2.1.4-2.1 1-4"/><path fill="#1a5c93" d="M382 425v3c-2.8.6-2.8.6-6 1l-3-2c5.6-2 5.6-2 9-2"/><path fill="#1788c7" d="M322 389h1l1 10-3-1z"/><path fill="#aaafb5" d="M267 375c2 2 2 2 2.1 4.6l-.1 2.4-4-1c.9-4.9.9-4.9 2-6"/><path fill="#59c1e0" d="m384 347 5 3-1 3-4-2z"/><path fill="#162843" d="m256 275 3 1v5l-2 1v-2l-2-1z"/><path fill="#2bb5ec" d="M414 255c0 3.7-1.3 5.8-3 9l-2-2c2.8-5.9 2.8-5.9 5-7"/><path fill="#d2d5dc" d="m47 247 3 1-1 7h-2z"/><path fill="#7bd2ed" d="M419 149c4 2.9 6 5.4 8 10h-2c-1.5-1.7-1.5-1.7-3.1-3.9l-1.7-2.2C419 151 419 151 419 149"/><path fill="#344358" d="M263 130h4c-1.4 3.4-3 5-6 7l-1-2h2z"/><path fill="#e7ecf0" d="M286 117v3h-2v2l-6 1c2.5-2.7 4.6-4.6 8-6"/><path fill="#ddeef2" d="m385 115 5 2-2 1v2h2v2l-4-1z"/><path fill="#f2fefe" d="m298 112 2 1-1 3c-2.6 1.2-2.6 1.2-5 2l-1-3c2.4-1.6 2.4-1.6 5-3"/><path fill="#0b1528" d="M214 48c2.3.3 2.3.3 4 1h-2v3h-6c1.8-2 1.8-2 4-4"/><path fill="#6b7175" d="m298 6 4.8-.1 2.6-.1c2.7.2 4.3.8 6.6 2.2l-7 1V7h-7z"/><path fill="#0c0e1d" d="m30 502 3 3-4 3-1-5z"/><path fill="#222837" d="m122 456 4 1v1l6 1v1c-7.5.4-7.5.4-10-1.5l-1-1.5z"/><path fill="#062245" d="M314 410c4.9 4.8 4.9 4.8 6 7l-6-1z"/><path fill="#141e3d" d="m310 408 4 1v6l-4-2z"/><path fill="#102343" d="M337 373c1 3.1 1 4 0 7h-2l-1-5z"/><path fill="#5cd6ec" d="m379 343-1 2h-7v-2c3.3-1.1 4.7-.8 8 0"/><path fill="#13283e" d="M260 281h3l-1 5-4-1z"/><path fill="#1c6db8" d="m418 271 4 2-5 6c-1.2-3.6-.5-4.6 1-8"/><path fill="#22304d" d="m291 271 7 4c-3 2-3 2-6 2z"/><path fill="#dde2e8" d="M286 247c1.6 1 1.6 1 3 3-.3 3.7-.3 3.7-1 7-2-2-2-2-2.2-4z"/><path fill="#233f5a" d="M57 248c2 2 2 2 2.1 5.6L59 257h-2c-.9-6.2-.9-6.2-1-8z"/><path fill="#cbe2ec" d="M406 167c4 4.8 4 4.8 4 7l-4 1z"/><path fill="#30465f" d="M237 160c1.5 3.8.4 6.3-1 10l-2-1c.6-3.3 1.4-6 3-9"/><path fill="#1d2a43" d="M69 146h2l1 8-3-1z"/><path fill="#61cef1" d="M265 137c.8 1.8.8 1.8 1 4-2 2.3-2 2.3-4 4 .8-5.7.8-5.7 3-8"/><path fill="#254058" d="m253 136 1 3c-1.4 2.2-1.4 2.2-3 4l-3-1z"/><path fill="#e7fafe" d="M265 133h3c-.7 2-.7 2-2 4-2.1.8-2.1.8-4 1 1.9-3.9 1.9-3.9 3-5"/><path fill="#667082" d="M312 133v5h-2v-2l-3 1-1-3q2.9-1 6-1"/><path fill="#e5e6eb" d="m349 105 11 1-4 3-7-3z"/><path fill="#0e192b" d="M123 59h8l-1 3h-6z"/><path fill="#abc3cd" d="M200 54v1h-6l-1 3-5-1c3.8-3.8 7-3.3 12-3"/><path fill="#182438" d="M302 53h3v6l-2 2z"/><path fill="#b0b5bc" d="M208 20h6l1 2 4 2h-7v-3z"/><path fill="#080f20" d="M111 464c1.1 3.3.8 5.6 0 9-1.4-2.3-2-3.5-1.7-6.2.7-1.8.7-1.8 1.7-2.8"/><path fill="#088be4" d="m326 414 3 1v3l4 1h-6z"/><path fill="#2b96d0" d="M342 370c1 2.8 1 3.9 0 6.8l-1 2.2h-2c.6-3.3 1.4-6 3-9"/><path fill="#5d5f65" d="M25 356h1v6l-3 1v-5z"/><path fill="#81ddf7" d="M368 346h2v2l3 .9c3 1.1 3 1.1 4 3.1l-7-1z"/><path fill="#2068b1" d="M405 284h3c-.4 2.9-.8 3.8-3 5.8l-2 1.2v-3h2z"/><path fill="#55c2ec" d="M263 256c4.9 4.6 4.9 4.6 6 8h-2l-2-3-3-1z"/><path fill="#8ec2da" d="M62 228a10 10 0 0 1 2 4q-.7 4-2 8h-1c-.1-8.6-.1-8.6 1-12"/><path fill="#d8f8fe" d="M237 185c1.1 3.3.8 5.6 0 9h-2c-.2-5.6-.2-5.6 2-9"/><path fill="#299ed5" d="M404 146q4 3.7 7 8c-2.8-.4-3.8-.8-5.7-2.9-1.3-2.1-1.3-2.1-1.3-5.1"/><path fill="#e2f8fc" d="m85 82 1 2-3 7h-1c-.4-5.5-.4-5.5 1.5-7.9z"/><path fill="#defafd" d="M149 60h9l-4 1v2l-5-1z"/><path fill="#cbced6" d="M156 28h7v3h-6z"/></svg>